<svg id="Layer_1" data-name="Layer 1" xmlns="http://www.w3.org/2000/svg" xmlns:xlink="http://www.w3.org/1999/xlink" viewBox="0 0 516.4 514"><defs><clipPath id="clip-path" transform="translate(2.2 1)"><path d="M258.17,337.84h-4.35c45,0,81.53-36.71,81.53-81.84s-36.57-81.84-81.53-81.84h4.35c45,0,81.54,36.71,81.54,81.84S303.14,337.84,258.17,337.84Z" style="fill:none"/></clipPath><clipPath id="clip-path-2" transform="translate(2.2 1)"><path d="M258.17,335.84h-4.35c43.86,0,79.54-35.82,79.54-79.84s-35.68-79.84-79.54-79.84h4.35c43.86,0,79.55,35.82,79.55,79.84S302,335.84,258.17,335.84Z" style="fill:none"/></clipPath><clipPath id="clip-path-3" transform="translate(2.2 1)"><path d="M258.17,443.63h-4.35c103.07,0,186.91-84.17,186.91-187.63S356.89,68.37,253.82,68.37h4.35c103.07,0,186.92,84.17,186.92,187.63S361.24,443.63,258.17,443.63Z" style="fill:none"/></clipPath><clipPath id="clip-path-4" transform="translate(2.2 1)"><path d="M258.17,337.84h-4.35c-45,0-81.53-36.71-81.53-81.84s36.57-81.84,81.53-81.84h4.35c-45,0-81.52,36.71-81.52,81.84S213.22,337.84,258.17,337.84Z" style="fill:none"/></clipPath><clipPath id="clip-path-5" transform="translate(2.2 1)"><path d="M258.17,443.63h-4.35C150.76,443.63,66.91,359.46,66.91,256S150.76,68.37,253.82,68.37h4.35c-103.06,0-186.9,84.17-186.9,187.63S155.11,443.63,258.17,443.63Z" style="fill:none"/></clipPath><clipPath id="clip-path-6" transform="translate(2.2 1)"><path d="M258.17,445.63h-4.35C149.65,445.63,64.91,360.57,64.91,256S149.65,66.37,253.82,66.37h4.35C154,66.37,69.27,151.43,69.27,256S154,445.63,258.17,445.63Z" style="fill:none"/></clipPath><clipPath id="clip-path-7" transform="translate(2.2 1)"><path d="M258.17,445.63h-4.35C358,445.63,442.73,360.57,442.73,256S358,66.37,253.82,66.37h4.35c104.18,0,188.92,85.06,188.92,189.63S362.35,445.63,258.17,445.63Z" style="fill:none"/></clipPath><clipPath id="clip-path-10" transform="translate(2.2 1)"><path d="M333.56,273.13h4.35a81.94,81.94,0,0,1-62.72,62.92h-4.36A82,82,0,0,0,333.56,273.13Z" style="fill:none"/></clipPath><clipPath id="clip-path-11" transform="translate(2.2 1)"><path d="M335.35,256c0-45.13-36.57-81.84-81.53-81.84h4.35c45,0,81.54,36.71,81.54,81.84a82,82,0,0,1-1.8,17.13h-4.35A82.69,82.69,0,0,0,335.35,256Z" style="fill:none"/></clipPath><clipPath id="clip-path-12" transform="translate(2.2 1)"><path d="M258.17,335.84h-4.35c43.86,0,79.54-35.82,79.54-79.84s-35.68-79.84-79.54-79.84h4.35c43.87,0,79.55,35.82,79.55,79.84S302,335.84,258.17,335.84Z" style="fill:none"/></clipPath><clipPath id="clip-path-13" transform="translate(2.2 1)"><path d="M258.17,376.26h-4.35c66.07,0,119.81-53.94,119.81-120.26S319.89,135.74,253.82,135.74h4.35C324.24,135.74,378,189.68,378,256S324.24,376.26,258.17,376.26Z" style="fill:none"/></clipPath><clipPath id="clip-path-14" transform="translate(2.2 1)"><path d="M270.83,336.05h4.36a81.56,81.56,0,0,1-17,1.79h-4.35A81.54,81.54,0,0,0,270.83,336.05Z" style="fill:none"/></clipPath><clipPath id="clip-path-16" transform="translate(2.2 1)"><path d="M258.17,376.26h-4.35C187.76,376.26,134,322.32,134,256s53.74-120.26,119.8-120.26h4.35c-66.05,0-119.8,53.94-119.8,120.26S192.12,376.26,258.17,376.26Z" style="fill:none"/></clipPath><clipPath id="clip-path-17" transform="translate(2.2 1)"><path d="M258.17,378.26h-4.35C186.66,378.26,132,323.41,132,256s54.63-122.26,121.79-122.26h4.35C191,133.74,136.38,188.59,136.38,256S191,378.26,258.17,378.26Z" style="fill:none"/></clipPath></defs><g style="isolation:isolate"><g style="isolation:isolate"><g style="clip-path:url(#clip-path)"><g style="isolation:isolate"><path d="M258.17,337.84h-4.35a81.74,81.74,0,0,0,12-.88h4.36a81.88,81.88,0,0,1-12,.88" transform="translate(2.2 1)" style="fill:#701523"/><path d="M270.17,337h-4.36a80.47,80.47,0,0,0,16.71-4.35h4.35a80.22,80.22,0,0,1-16.7,4.35" transform="translate(2.2 1)" style="fill:#6f1523"/><path d="M286.87,332.61h-4.35A82,82,0,0,0,335.35,256c0-45.13-36.57-81.84-81.53-81.84h4.35c45,0,81.54,36.71,81.54,81.84a82,82,0,0,1-52.84,76.61" transform="translate(2.2 1)" style="fill:#6d1422"/></g></g></g><g style="isolation:isolate"><g style="clip-path:url(#clip-path-2)"><g style="isolation:isolate"><path d="M258.17,335.84h-4.35a79,79,0,0,0,11.69-.86h4.36a79.18,79.18,0,0,1-11.7.86" transform="translate(2.2 1)" style="fill:#010101"/><path d="M269.87,335h-4.36a78.57,78.57,0,0,0,16.3-4.24h4.36a78.57,78.57,0,0,1-16.3,4.24" transform="translate(2.2 1)" style="fill:#010101"/><path d="M286.17,330.74h-4.36A80,80,0,0,0,333.36,256c0-44-35.68-79.84-79.54-79.84h4.35c43.86,0,79.55,35.82,79.55,79.84a80,80,0,0,1-51.55,74.74" transform="translate(2.2 1)" style="fill:#010101"/></g></g></g><g style="isolation:isolate"><g style="clip-path:url(#clip-path-3)"><g style="isolation:isolate"><path d="M258.17,443.63h-4.35a186.19,186.19,0,0,0,27.49-2h4.35a186,186,0,0,1-27.49,2" transform="translate(2.2 1)" style="fill:#010101"/><path d="M285.66,441.6h-4.35a184.35,184.35,0,0,0,38.29-10H324a184.28,184.28,0,0,1-38.3,10" transform="translate(2.2 1)" style="fill:#010101"/><path d="M324,431.63H319.6A187.91,187.91,0,0,0,440.73,256c0-103.46-83.84-187.63-186.91-187.63h4.35c103.07,0,186.92,84.17,186.92,187.63A187.91,187.91,0,0,1,324,431.63" transform="translate(2.2 1)" style="fill:#010101"/></g></g></g><g style="isolation:isolate"><g style="clip-path:url(#clip-path-4)"><g style="isolation:isolate"><path d="M258.17,337.84h-4.35c-45,0-81.53-36.71-81.53-81.84a82,82,0,0,1,52.83-76.61h4.36A82,82,0,0,0,176.65,256c0,45.13,36.57,81.84,81.52,81.84" transform="translate(2.2 1)" style="fill:#010101"/><path d="M229.48,179.39h-4.36A80.47,80.47,0,0,1,241.83,175h4.36a80.47,80.47,0,0,0-16.71,4.35" transform="translate(2.2 1)" style="fill:#010101"/><path d="M246.19,175h-4.36a81.64,81.64,0,0,1,12-.88h4.35a81.61,81.61,0,0,0-12,.88" transform="translate(2.2 1)" style="fill:#010101"/></g></g></g><g style="isolation:isolate"><g style="clip-path:url(#clip-path-5)"><g style="isolation:isolate"><path d="M258.17,443.63h-4.35C150.76,443.63,66.91,359.46,66.91,256A187.91,187.91,0,0,1,188,80.37h4.36A187.91,187.91,0,0,0,71.27,256c0,103.46,83.84,187.63,186.9,187.63" transform="translate(2.2 1)" style="fill:#6d1422"/><path d="M192.4,80.37H188a184.35,184.35,0,0,1,38.29-10h4.36a184.19,184.19,0,0,0-38.29,10" transform="translate(2.2 1)" style="fill:#6f1523"/><path d="M230.69,70.4h-4.36a186,186,0,0,1,27.49-2h4.35a186,186,0,0,0-27.48,2" transform="translate(2.2 1)" style="fill:#701523"/></g></g></g><path d="M258.17,68.37c103.07,0,186.92,84.17,186.92,187.63S361.24,443.63,258.17,443.63,71.27,359.46,71.27,256,155.11,68.37,258.17,68.37Zm0,269.47c45,0,81.54-36.71,81.54-81.84s-36.57-81.84-81.54-81.84S176.65,210.87,176.65,256s36.57,81.84,81.52,81.84" transform="translate(2.2 1)" style="fill:#85202e"/><path d="M258.17,66.37c104.18,0,188.92,85.06,188.92,189.63S362.35,445.63,258.17,445.63,69.27,360.57,69.27,256,154,66.37,258.17,66.37Zm0,377.26c103.07,0,186.92-84.17,186.92-187.63S361.24,68.37,258.17,68.37,71.27,152.54,71.27,256s83.84,187.63,186.9,187.63" transform="translate(2.2 1)" style="fill:#010101"/><path d="M258.17,174.16c45,0,81.54,36.71,81.54,81.84s-36.57,81.84-81.54,81.84S176.65,301.13,176.65,256,213.22,174.16,258.17,174.16Zm0,161.68c43.86,0,79.55-35.82,79.55-79.84S302,176.16,258.17,176.16,178.64,212,178.64,256s35.68,79.84,79.53,79.84" transform="translate(2.2 1)" style="fill:#010101"/><g style="isolation:isolate"><g style="clip-path:url(#clip-path-6)"><g style="isolation:isolate"><path d="M258.17,445.63h-4.35C149.65,445.63,64.91,360.57,64.91,256A189.91,189.91,0,0,1,187.34,78.49h4.35A189.91,189.91,0,0,0,69.27,256c0,104.57,84.74,189.63,188.9,189.63" transform="translate(2.2 1)" style="fill:#010101"/><path d="M191.69,78.49h-4.35A186.1,186.1,0,0,1,226,68.41h4.35a186.26,186.26,0,0,0-38.7,10.08" transform="translate(2.2 1)" style="fill:#010101"/><path d="M230.39,68.41H226a188.45,188.45,0,0,1,27.78-2h4.35a188.65,188.65,0,0,0-27.78,2" transform="translate(2.2 1)" style="fill:#010101"/></g></g></g></g><g style="isolation:isolate"><rect x="510.05" y="242.95" width="4.36" height="28.09" style="fill:#010101"/><polygon points="489.72 367.56 485.36 367.56 496.06 341.6 500.42 341.6 489.72 367.56" style="fill:#010101"/><polygon points="500.42 172.39 496.06 172.39 485.36 146.44 489.72 146.44 500.42 172.39" style="fill:#010101"/><polygon points="475.45 285.74 471.1 285.74 510.05 271.04 514.41 271.04 475.45 285.74" style="fill:#010101"/><polygon points="514.41 242.95 510.05 242.95 471.1 228.26 475.45 228.26 514.41 242.95" style="fill:#010101"/><polygon points="500.42 341.6 496.06 341.6 465.68 313.06 470.04 313.06 500.42 341.6" style="fill:#010101"/><polygon points="470.04 313.06 465.68 313.06 471.1 285.74 475.45 285.74 470.04 313.06" style="fill:#010101"/><polygon points="475.45 228.26 471.1 228.26 465.68 200.93 470.04 200.93 475.45 228.26" style="fill:#010101"/><polygon points="470.04 200.93 465.68 200.93 496.06 172.39 500.42 172.39 470.04 200.93" style="fill:#010101"/><polygon points="491.03 369.6 486.67 369.6 444.81 368.21 449.16 368.21 491.03 369.6" style="fill:#010101"/><polygon points="449.16 145.79 444.81 145.79 486.67 144.4 491.03 144.4 449.16 145.79" style="fill:#010101"/><polygon points="489.72 367.56 485.36 367.56 443.77 366.17 448.12 366.17 489.72 367.56" style="fill:#6c1321"/><polygon points="448.12 147.82 443.77 147.82 485.36 146.44 489.72 146.44 448.12 147.82" style="fill:#6f1523"/><polygon points="432.7 389.34 428.35 389.34 443.77 366.17 448.13 366.17 432.7 389.34" style="fill:#010101"/><polygon points="449.9 427.37 445.54 427.37 428.35 389.34 432.7 389.34 449.9 427.37" style="fill:#010101"/><polygon points="448.13 147.82 443.77 147.82 428.35 124.66 432.7 124.66 448.13 147.82" style="fill:#010101"/><polygon points="432.7 124.66 428.35 124.66 445.54 86.61 449.9 86.61 432.7 124.66" style="fill:#010101"/><polygon points="430.1 447.25 425.75 447.25 445.54 427.37 449.9 427.37 430.1 447.25" style="fill:#010101"/><polygon points="449.9 86.61 445.54 86.61 425.75 66.75 430.1 66.75 449.9 86.61" style="fill:#010101"/><polygon points="430.1 447.24 425.75 447.24 388.36 430.21 392.72 430.21 430.1 447.24" style="fill:#6c1321"/><polygon points="430.54 449.64 426.19 449.64 388.04 432.26 392.39 432.26 430.54 449.64" style="fill:#010101"/><polygon points="392.39 81.74 388.04 81.74 426.19 64.36 430.54 64.36 392.39 81.74" style="fill:#010101"/><polygon points="392.21 84.01 387.86 84.01 425.75 66.75 430.1 66.75 392.21 84.01" style="fill:#6d1422"/><polygon points="369.14 445.46 364.78 445.46 387.86 429.98 392.21 429.98 369.14 445.46" style="fill:#010101"/><polygon points="370.52 487.21 366.16 487.21 364.78 445.46 369.14 445.46 370.52 487.21" style="fill:#010101"/><polygon points="392.21 84.01 387.86 84.01 364.78 68.53 369.14 68.53 392.21 84.01" style="fill:#010101"/><polygon points="369.14 68.53 364.78 68.53 366.16 26.78 370.52 26.78 369.14 68.53" style="fill:#010101"/><polygon points="344.66 497.96 340.3 497.96 366.16 487.21 370.52 487.21 344.66 497.96" style="fill:#010101"/><polygon points="370.52 26.78 366.16 26.78 340.3 16.04 344.66 16.04 370.52 26.78" style="fill:#010101"/><polygon points="344.66 497.96 340.3 497.96 311.87 467.46 316.23 467.46 344.66 497.96" style="fill:#6c1321"/><polygon points="316.23 46.54 311.87 46.54 340.3 16.04 344.66 16.04 316.23 46.54" style="fill:#6c1321"/><polygon points="344.15 500.34 339.79 500.34 311.17 469.64 315.53 469.64 344.15 500.34" style="fill:#010101"/><polygon points="315.53 44.36 311.17 44.36 339.79 13.65 344.15 13.65 315.53 44.36" style="fill:#010101"/><polygon points="289.01 472.89 284.65 472.89 311.87 467.46 316.23 467.46 289.01 472.89" style="fill:#010101"/><polygon points="316.23 46.54 311.87 46.54 284.65 41.1 289.01 41.1 316.23 46.54" style="fill:#010101"/><polygon points="274.37 512 270.01 512 284.65 472.89 289.01 472.89 274.37 512" style="fill:#010101"/><polygon points="289.01 41.1 284.65 41.1 270.01 2 274.37 2 289.01 41.1" style="fill:#010101"/><g style="isolation:isolate"><g style="clip-path:url(#clip-path-7)"><g style="isolation:isolate"><path d="M258.17,445.63h-4.35a188.65,188.65,0,0,0,27.78-2H286a188.69,188.69,0,0,1-27.79,2" transform="translate(2.2 1)" style="fill:#701523"/><path d="M286,443.59H281.6a186.1,186.1,0,0,0,38.7-10.08h4.36A186.1,186.1,0,0,1,286,443.59" transform="translate(2.2 1)" style="fill:#6f1523"/><path d="M324.66,433.51H320.3A189.92,189.92,0,0,0,442.73,256c0-104.57-84.74-189.63-188.91-189.63h4.35c104.18,0,188.92,85.06,188.92,189.63A189.92,189.92,0,0,1,324.66,433.51" transform="translate(2.2 1)" style="fill:#6d1422"/></g></g></g><g style="isolation:isolate"><g style="clip-path:url(#clip-path-3)"><g style="isolation:isolate"><path d="M258.17,443.63h-4.35a186.19,186.19,0,0,0,27.49-2h4.35a186,186,0,0,1-27.49,2" transform="translate(2.2 1)" style="fill:#010101"/><path d="M285.66,441.6h-4.35a184.35,184.35,0,0,0,38.29-10H324a184.28,184.28,0,0,1-38.3,10" transform="translate(2.2 1)" style="fill:#010101"/><path d="M324,431.63H319.6A187.91,187.91,0,0,0,440.73,256c0-103.46-83.84-187.63-186.91-187.63h4.35c103.07,0,186.92,84.17,186.92,187.63A187.91,187.91,0,0,1,324,431.63" transform="translate(2.2 1)" style="fill:#010101"/></g></g></g><polygon points="246.39 512 242.03 512 270.01 512 274.37 512 246.39 512" style="fill:#010101"/><polygon points="246.39 2 242.03 2 270.01 2 274.37 2 246.39 2" style="fill:#701523"/><polygon points="245 0 240.65 0 271.39 0 275.75 0 245 0" style="fill:#010101"/><polygon points="246.39 512 242.03 512 227.39 472.89 231.75 472.89 246.39 512" style="fill:#6c1321"/><polygon points="231.75 41.1 227.39 41.1 242.03 2 246.39 2 231.75 41.1" style="fill:#6c1321"/><polygon points="245 514 240.65 514 225.92 474.64 230.28 474.64 245 514" style="fill:#010101"/><polygon points="230.28 39.35 225.92 39.35 240.65 0 245 0 230.28 39.35" style="fill:#010101"/><polygon points="230.28 474.64 225.92 474.64 200.86 469.64 205.22 469.64 230.28 474.64" style="fill:#010101"/><polygon points="205.22 44.36 200.86 44.36 225.92 39.35 230.28 39.35 205.22 44.36" style="fill:#010101"/><polygon points="231.75 472.89 227.39 472.89 200.17 467.46 204.53 467.46 231.75 472.89" style="fill:#6c1321"/><polygon points="204.53 46.54 200.17 46.54 227.39 41.1 231.75 41.1 204.53 46.54" style="fill:#6e1522"/><polygon points="176.09 497.96 171.74 497.96 200.17 467.46 204.53 467.46 176.09 497.96" style="fill:#010101"/><polygon points="204.53 46.54 200.17 46.54 171.74 16.04 176.09 16.04 204.53 46.54" style="fill:#010101"/><polygon points="176.09 497.96 171.74 497.96 145.88 487.21 150.24 487.21 176.09 497.96" style="fill:#6c1321"/><polygon points="150.24 487.21 145.88 487.21 147.26 445.46 151.62 445.46 150.24 487.21" style="fill:#6c1321"/><polygon points="151.62 68.53 147.26 68.53 145.88 26.78 150.24 26.78 151.62 68.53" style="fill:#6c1321"/><polygon points="150.24 26.78 145.88 26.78 171.74 16.04 176.09 16.04 150.24 26.78" style="fill:#6d1422"/><polygon points="148.2 488.53 143.85 488.53 145.24 446.51 149.59 446.51 148.2 488.53" style="fill:#010101"/><polygon points="176.61 500.34 172.25 500.34 143.85 488.53 148.2 488.53 176.61 500.34" style="fill:#010101"/><polygon points="149.59 67.49 145.24 67.49 143.85 25.47 148.2 25.47 149.59 67.49" style="fill:#010101"/><polygon points="148.2 25.47 143.85 25.47 172.25 13.65 176.61 13.65 148.2 25.47" style="fill:#010101"/><polygon points="151.62 445.46 147.26 445.46 124.18 429.98 128.54 429.98 151.62 445.46" style="fill:#6c1321"/><polygon points="128.54 84.01 124.18 84.01 147.26 68.53 151.62 68.53 128.54 84.01" style="fill:#6d1421"/><polygon points="149.59 446.51 145.24 446.51 123.99 432.26 128.35 432.26 149.59 446.51" style="fill:#010101"/><polygon points="128.35 81.74 123.99 81.74 145.24 67.49 149.59 67.49 128.35 81.74" style="fill:#010101"/><polygon points="90.64 447.25 86.28 447.25 124.18 429.98 128.54 429.98 90.64 447.25" style="fill:#010101"/><polygon points="128.54 84.01 124.18 84.01 86.28 66.75 90.64 66.75 128.54 84.01" style="fill:#010101"/><polygon points="88.05 389.34 83.69 389.34 68.27 366.17 72.63 366.17 88.05 389.34" style="fill:#6c1321"/><polygon points="72.63 147.82 68.27 147.82 83.69 124.66 88.05 124.66 72.63 147.82" style="fill:#6c1321"/><polygon points="70.86 427.37 66.5 427.37 83.69 389.34 88.05 389.34 70.86 427.37" style="fill:#6c1321"/><polygon points="85.78 389.52 81.43 389.52 67.23 368.21 71.59 368.21 85.78 389.52" style="fill:#010101"/><polygon points="88.05 124.66 83.69 124.66 66.5 86.61 70.86 86.61 88.05 124.66" style="fill:#6c1321"/><polygon points="71.59 145.79 67.23 145.79 81.43 124.47 85.78 124.47 71.59 145.79" style="fill:#010101"/><g style="isolation:isolate"><g style="clip-path:url(#clip-path-6)"><g style="isolation:isolate"><path d="M258.17,445.63h-4.35C149.65,445.63,64.91,360.57,64.91,256A189.91,189.91,0,0,1,187.33,78.49h4.36A189.91,189.91,0,0,0,69.27,256c0,104.57,84.74,189.63,188.9,189.63" transform="translate(2.2 1)" style="fill:#010101"/><path d="M191.69,78.49h-4.36A186.35,186.35,0,0,1,226,68.41h4.35a186.26,186.26,0,0,0-38.7,10.08" transform="translate(2.2 1)" style="fill:#010101"/><path d="M230.39,68.41H226a188.45,188.45,0,0,1,27.78-2h4.35a188.65,188.65,0,0,0-27.78,2" transform="translate(2.2 1)" style="fill:#010101"/></g></g></g><polygon points="31.04 367.56 26.68 367.56 68.27 366.17 72.63 366.17 31.04 367.56" style="fill:#010101"/><polygon points="72.63 147.82 68.27 147.82 26.68 146.44 31.04 146.44 72.63 147.82" style="fill:#010101"/><path d="M512.21,270l-39,14.7-5.41,27.33,30.38,28.53-10.7,26-41.59-1.39L430.5,388.34l17.2,38-19.8,19.88-37.38-17-23.58,15.25,1.38,41.75L342.46,497,314,466.46l-27.22,5.44L272.17,511h-28l-14.64-39.1-27.22-5.44L173.9,497,148,486.21l1.38-41.75L126.34,429l-37.9,17.27L68.66,426.37l17.19-38L70.43,365.17l-41.59,1.39-10.71-26,30.39-28.53L43.1,284.74,4.15,270V242l39-14.69,5.42-27.33L18.13,171.4l10.71-26,41.59,1.38,15.42-23.16-17.19-38L88.44,65.75,126.34,83l23.08-15.48L148,25.78,173.9,15l28.43,30.5,27.22-5.44L244.19,1h28l14.64,39.1L314,45.54,342.46,15l25.86,10.74-1.38,41.75L390,83,427.9,65.75l19.8,19.87-17.2,38,15.43,23.16,41.59-1.38,10.7,26-30.38,28.53,5.41,27.33,39,14.69Zm-254,175.59c104.18,0,188.92-85.06,188.92-189.63S362.35,66.37,258.17,66.37,69.27,151.43,69.27,256,154,445.63,258.17,445.63" transform="translate(2.2 1)" style="fill:#85202e"/><polygon points="90.64 447.24 86.28 447.24 66.5 427.37 70.86 427.37 90.64 447.24" style="fill:#6c1321"/><polygon points="70.86 86.61 66.5 86.61 86.28 66.75 90.64 66.75 70.86 86.61" style="fill:#6c1321"/><polygon points="50.72 313.06 46.36 313.06 40.94 285.74 45.3 285.74 50.72 313.06" style="fill:#6c1321"/><polygon points="45.3 228.26 40.94 228.26 46.36 200.93 50.72 200.93 45.3 228.26" style="fill:#6c1321"/><polygon points="20.33 341.6 15.97 341.6 46.36 313.06 50.72 313.06 20.33 341.6" style="fill:#6c1321"/><polygon points="31.04 367.56 26.68 367.56 15.97 341.6 20.33 341.6 31.04 367.56" style="fill:#6c1321"/><polygon points="20.33 172.39 15.97 172.39 26.68 146.44 31.04 146.44 20.33 172.39" style="fill:#6c1321"/><polygon points="50.72 200.93 46.36 200.93 15.97 172.39 20.33 172.39 50.72 200.93" style="fill:#6c1321"/><polygon points="45.3 285.74 40.94 285.74 1.99 271.04 6.35 271.04 45.3 285.74" style="fill:#6c1321"/><rect x="1.99" y="242.95" width="4.36" height="28.09" style="fill:#6c1321"/><polygon points="6.35 242.95 1.99 242.95 40.94 228.26 45.3 228.26 6.35 242.95" style="fill:#6e1422"/><path d="M514.2,271.43,475,286.22l-5,25.14,30.58,28.73L488.83,368.6,447,367.21l-14.2,21.31,17.32,38.29-21.75,21.83L390.2,431.26,369,445.51l1.39,42L342,499.34l-28.62-30.7-25.05,5L273.55,513H242.81l-14.73-39.36-25.06-5-28.61,30.7L146,487.53l1.39-42-21.24-14.25L88,448.64,66.27,426.81l17.31-38.29L69.39,367.21,27.53,368.6,15.76,340.09l30.59-28.73-5-25.14L2.16,271.43V240.57l39.2-14.79,5-25.15L15.76,171.91,27.53,143.4l41.86,1.39,14.19-21.32L66.27,85.18,88,63.36l38.14,17.38,21.24-14.25-1.39-42,28.41-11.82L203,43.36l25.06-5L242.81-1h30.74l14.73,39.36,25.05,5L342,12.65l28.4,11.82-1.39,42L390.2,80.74l38.14-17.38,21.75,21.82-17.32,38.29L447,144.79l41.86-1.39,11.76,28.51L470,200.63l5,25.15,39.21,14.79Zm-46.36,40.63,5.41-27.32,39-14.7V242l-39-14.7-5.41-27.33,30.38-28.53-10.7-26-41.59,1.38L430.5,123.66l17.2-38L427.9,65.75,390,83,366.94,67.54l1.38-41.76L342.46,15,314,45.54,286.81,40.1,272.17,1h-28L229.55,40.1l-27.22,5.44L173.9,15,148,25.78l1.38,41.76L126.34,83,88.44,65.75,68.66,85.62l17.19,38L70.43,146.82l-41.59-1.38-10.71,26,30.39,28.53L43.1,227.26,4.15,242V270l39,14.7,5.42,27.32L18.13,340.6l10.71,26,41.59-1.39,15.42,23.17-17.19,38,19.78,19.88L126.34,429l23.08,15.48L148,486.21,173.9,497l28.43-30.5,27.22,5.44L244.19,511h28l14.64-39.1L314,466.46,342.46,497l25.86-10.75-1.38-41.75L390,429l37.88,17.27,19.8-19.88-17.2-38,15.43-23.17,41.59,1.39,10.7-26-30.38-28.54" transform="translate(2.2 1)" style="fill:#010101"/><path d="M258.17,66.37c104.18,0,188.92,85.06,188.92,189.63S362.35,445.63,258.17,445.63,69.27,360.57,69.27,256,154,66.37,258.17,66.37Zm0,377.26c103.07,0,186.92-84.17,186.92-187.63S361.24,68.37,258.17,68.37,71.26,152.54,71.26,256s83.85,187.63,186.91,187.63" transform="translate(2.2 1)" style="fill:#010101"/><polygon points="90.21 449.64 85.85 449.64 64.11 427.81 68.47 427.81 90.21 449.64" style="fill:#010101"/><polygon points="68.47 427.81 64.11 427.81 81.43 389.52 85.78 389.52 68.47 427.81" style="fill:#010101"/><polygon points="68.47 86.18 64.11 86.18 85.85 64.36 90.21 64.36 68.47 86.18" style="fill:#010101"/><polygon points="85.78 124.47 81.43 124.47 64.11 86.18 68.47 86.18 85.78 124.47" style="fill:#010101"/><polygon points="48.55 312.36 44.19 312.36 39.21 287.21 43.56 287.21 48.55 312.36" style="fill:#010101"/><polygon points="43.56 226.78 39.21 226.78 44.19 201.63 48.55 201.63 43.56 226.78" style="fill:#010101"/><polygon points="17.96 341.09 13.6 341.09 44.19 312.36 48.55 312.36 17.96 341.09" style="fill:#010101"/><polygon points="29.73 369.6 25.37 369.6 13.6 341.09 17.96 341.09 29.73 369.6" style="fill:#010101"/><polygon points="48.55 201.63 44.19 201.63 13.6 172.91 17.96 172.91 48.55 201.63" style="fill:#010101"/><polygon points="17.96 172.91 13.6 172.91 25.37 144.4 29.73 144.4 17.96 172.91" style="fill:#010101"/><polygon points="43.56 287.21 39.21 287.21 0 272.43 4.36 272.43 43.56 287.21" style="fill:#010101"/><polygon points="4.36 241.57 0 241.57 39.21 226.78 43.56 226.78 4.36 241.57" style="fill:#010101"/><rect y="241.57" width="4.36" height="30.86" style="fill:#010101"/></g><g style="isolation:isolate"><g style="isolation:isolate"><g style="clip-path:url(#clip-path-10)"><g style="isolation:isolate"><path d="M270.17,337h-4.36a80.47,80.47,0,0,0,16.71-4.35h4.35a80.22,80.22,0,0,1-16.7,4.35" transform="translate(2.2 1)" style="fill:#6f1523"/><path d="M286.87,332.61h-4.35A82,82,0,0,0,335.35,256c0-45.13-36.57-81.84-81.53-81.84h4.35c45,0,81.54,36.71,81.54,81.84a82,82,0,0,1-52.84,76.61" transform="translate(2.2 1)" style="fill:#6d1422"/></g></g></g><g style="isolation:isolate"><g style="clip-path:url(#clip-path-11)"><g style="isolation:isolate"><path d="M286.87,332.61h-4.35A82,82,0,0,0,335.35,256c0-45.13-36.57-81.84-81.53-81.84h4.35c45,0,81.54,36.71,81.54,81.84a82,82,0,0,1-52.84,76.61" transform="translate(2.2 1)" style="fill:#6d1422"/></g></g></g><g style="isolation:isolate"><g style="clip-path:url(#clip-path-12)"><g style="isolation:isolate"><path d="M258.17,335.84h-4.35a79,79,0,0,0,11.69-.86h4.36a79.18,79.18,0,0,1-11.7.86" transform="translate(2.2 1)" style="fill:#010101"/><path d="M269.87,335h-4.36a78.57,78.57,0,0,0,16.3-4.24h4.36a78.57,78.57,0,0,1-16.3,4.24" transform="translate(2.2 1)" style="fill:#010101"/><path d="M286.17,330.74h-4.36A80,80,0,0,0,333.36,256c0-44-35.68-79.84-79.54-79.84h4.35c43.87,0,79.55,35.82,79.55,79.84a80,80,0,0,1-51.55,74.74" transform="translate(2.2 1)" style="fill:#010101"/></g></g></g><g style="isolation:isolate"><g style="clip-path:url(#clip-path-13)"><g style="isolation:isolate"><path d="M258.17,376.26h-4.35A120.5,120.5,0,0,0,271.44,375h4.36a120.64,120.64,0,0,1-17.63,1.29" transform="translate(2.2 1)" style="fill:#010101"/><path d="M275.8,375h-4.36a118.61,118.61,0,0,0,24.55-6.4h4.35A118.35,118.35,0,0,1,275.8,375" transform="translate(2.2 1)" style="fill:#010101"/><path d="M300.34,368.57H296A120.44,120.44,0,0,0,373.63,256c0-66.32-53.74-120.26-119.81-120.26h4.35C324.24,135.74,378,189.68,378,256a120.42,120.42,0,0,1-77.64,112.57" transform="translate(2.2 1)" style="fill:#010101"/></g></g></g><g style="isolation:isolate"><g style="clip-path:url(#clip-path-14)"><g style="isolation:isolate"><path d="M258.17,337.84h-4.35a81.74,81.74,0,0,0,12-.88h4.36a81.88,81.88,0,0,1-12,.88" transform="translate(2.2 1)" style="fill:#701523"/><path d="M270.17,337h-4.36a80.47,80.47,0,0,0,16.71-4.35h4.35a80.22,80.22,0,0,1-16.7,4.35" transform="translate(2.2 1)" style="fill:#6f1523"/></g></g></g><g style="isolation:isolate"><g style="clip-path:url(#clip-path-4)"><g style="isolation:isolate"><path d="M258.17,337.84h-4.35c-45,0-81.53-36.71-81.53-81.84a82,82,0,0,1,52.84-76.61h4.35A82,82,0,0,0,176.65,256c0,45.13,36.57,81.84,81.52,81.84" transform="translate(2.2 1)" style="fill:#010101"/><path d="M229.48,179.39h-4.35a80.22,80.22,0,0,1,16.7-4.35h4.36a80.47,80.47,0,0,0-16.71,4.35" transform="translate(2.2 1)" style="fill:#010101"/><path d="M246.19,175h-4.36a81.64,81.64,0,0,1,12-.88h4.35a81.61,81.61,0,0,0-12,.88" transform="translate(2.2 1)" style="fill:#010101"/></g></g></g><path d="M258.17,135.74C324.24,135.74,378,189.68,378,256S324.24,376.26,258.17,376.26,138.37,322.32,138.37,256,192.12,135.74,258.17,135.74Zm0,202.1c45,0,81.54-36.71,81.54-81.84s-36.57-81.84-81.54-81.84S176.65,210.87,176.65,256s36.57,81.84,81.52,81.84" transform="translate(2.2 1)" style="fill:#85202e"/><g style="isolation:isolate"><g style="clip-path:url(#clip-path-16)"><g style="isolation:isolate"><path d="M258.17,376.26h-4.35C187.76,376.26,134,322.32,134,256a120.46,120.46,0,0,1,77.63-112.58H216A120.45,120.45,0,0,0,138.37,256c0,66.32,53.75,120.26,119.8,120.26" transform="translate(2.2 1)" style="fill:#6d1422"/><path d="M216,143.42h-4.36A119.22,119.22,0,0,1,236.2,137h4.36A119.06,119.06,0,0,0,216,143.42" transform="translate(2.2 1)" style="fill:#6f1523"/><path d="M240.56,137H236.2a120.4,120.4,0,0,1,17.62-1.29h4.35A120.37,120.37,0,0,0,240.56,137" transform="translate(2.2 1)" style="fill:#701523"/></g></g></g><path d="M258.17,133.74C325.34,133.74,380,188.59,380,256s-54.63,122.26-121.8,122.26S136.38,323.41,136.38,256,191,133.74,258.17,133.74Zm0,242.52C324.24,376.26,378,322.32,378,256S324.24,135.74,258.17,135.74,138.37,189.68,138.37,256s53.75,120.26,119.8,120.26" transform="translate(2.2 1)" style="fill:#010101"/><path d="M258.17,174.16c45,0,81.54,36.71,81.54,81.84s-36.57,81.84-81.54,81.84S176.65,301.13,176.65,256,213.22,174.16,258.17,174.16Zm0,161.68c43.87,0,79.55-35.82,79.55-79.84S302,176.16,258.17,176.16,178.64,212,178.64,256s35.68,79.84,79.53,79.84" transform="translate(2.2 1)" style="fill:#010101"/><g style="isolation:isolate"><g style="clip-path:url(#clip-path-17)"><g style="isolation:isolate"><path d="M258.17,378.26h-4.35C186.66,378.26,132,323.41,132,256A122.46,122.46,0,0,1,211,141.55h4.36A122.46,122.46,0,0,0,136.38,256c0,67.41,54.64,122.26,121.79,122.26" transform="translate(2.2 1)" style="fill:#010101"/><path d="M215.32,141.55H211a120.22,120.22,0,0,1,24.95-6.49h4.36a120.06,120.06,0,0,0-25,6.49" transform="translate(2.2 1)" style="fill:#010101"/><path d="M240.27,135.06h-4.36a121.49,121.49,0,0,1,17.91-1.32h4.35a121.46,121.46,0,0,0-17.9,1.32" transform="translate(2.2 1)" style="fill:#010101"/></g></g></g></g></svg>