<svg xmlns="http://www.w3.org/2000/svg" viewBox="0 0 1500 765.45"><g id="Layer_1_copy" data-name="Layer 1 copy"><path d="M6929.28,6985.48c.3-3.3.58-6.72.83-10.16l.91-11.77v-.19a9.55,9.55,0,0,0-1.08-5.11,6.42,6.42,0,0,0-5.71-3.06,11.74,11.74,0,0,0-3.3.46l-25.56,6.1a7.56,7.56,0,0,0-5.26,4,13.07,13.07,0,0,0-1,5.8c0,.19,0,.75-.07,1.66-.05,1.07-.15,2.84-.3,5.33s-.48,6.08-1,10.53c-.42,3.51-.82,7.64-1.18,12.31l-16.7.18.73-5.58c.45-2.41.81-4.82,1.07-7.17s.5-4.74.72-7.26.44-5.26.64-8.21.47-6,.81-9.51l0-.25v-.24a9.55,9.55,0,0,0-1.08-5.11,6.42,6.42,0,0,0-5.71-3.06,11.79,11.79,0,0,0-3.3.46l-25.25,6.1a7,7,0,0,0-5.4,5,26.43,26.43,0,0,0-.55,4.44c-.14,1.43-.3,3.14-.48,5.14s-.33,4-.48,5.9-.28,3.55-.38,4.93-.14,1.94-.15,2.24l-1.58,16.4-1.24,1.91c-1,1.5-2.07,3.2-3.29,5.1s-2.45,3.75-3.73,5.65-2.42,3.52-3.39,4.86a9.36,9.36,0,0,0-2.06,5.43c0,1,.34,5.87,7.12,6.7,1,.12,2.32.21,3.9.28-.24,2.33-.47,4.68-.71,7.05-.35,3.53-.66,7-.9,10.34s-.47,6.55-.64,9.6-.27,5.9-.27,8.36a7.25,7.25,0,0,0,2.77,6.13,8,8,0,0,0,4.84,1.6,13.73,13.73,0,0,0,4.06-.63c1-.31,1.8-.6,2.52-.89q1.77-.66,5.05-1.84l6.83-2.42,6.1-2.13c2.51-.88,3.08-1.1,3.43-1.27a6.63,6.63,0,0,0,3.67-4.1,12.88,12.88,0,0,0,.44-2.24l2.63-27.77H6884c-.51,5.58-1.08,11.23-1.71,16.83a170.26,170.26,0,0,0-1.07,18.8,7.22,7.22,0,0,0,2.89,6.19,8.15,8.15,0,0,0,4.72,1.47,16,16,0,0,0,4.19-.78c1.48-.42,3.15-.94,5-1.54s3.73-1.26,5.79-2l5.63-2c1.77-.66,3.3-1.23,4.59-1.73s2.12-.83,2.52-1a6.49,6.49,0,0,0,3.8-4,11.59,11.59,0,0,0,.54-2.44l3.5-36.39q.6-6.69,1.12-12.1c.34-3.55.71-6.88,1.1-9.91l1.31-10.22A66.83,66.83,0,0,0,6929.28,6985.48Z" transform="translate(-6808.74 -6932.61)" style="fill:#444"/><path d="M7015.23,7057.35a5.86,5.86,0,0,1-.75-.73,3.35,3.35,0,0,1-.49-.79,3,3,0,0,1-.09-.88v-.11l8.37-74.95-5.88.3c-4,.2-7.81.52-11.47,1-3.49.41-7.08.87-10.67,1.36a15,15,0,0,0-3.54.65,6.5,6.5,0,0,0-3.62,3c-1.31-.74-2.65-1.43-4-2a30.45,30.45,0,0,0-12.63-2.69,38.79,38.79,0,0,0-17.13,3.93,42.78,42.78,0,0,0-14,11,53.06,53.06,0,0,0-9.28,16.52,62.45,62.45,0,0,0-3.38,20.92,49.09,49.09,0,0,0,3.14,17.9,43.79,43.79,0,0,0,8.38,13.76,37.89,37.89,0,0,0,12.2,9,34.18,34.18,0,0,0,14.3,3.19,30.77,30.77,0,0,0,12.9-3,31.74,31.74,0,0,0,5.5-3.27,19.55,19.55,0,0,0,1.27,2.7,6.27,6.27,0,0,0,5.52,3.54,5.92,5.92,0,0,0,2.69-.57l19.78-8.36c4.41-1.77,5.34-4.53,5.34-6.55A6,6,0,0,0,7015.23,7057.35Zm-46.52-12.59c-1.12-1.94-2.44-6.05-2.44-14.59a41.09,41.09,0,0,1,.64-6.62,28.28,28.28,0,0,1,2-6.76,14.75,14.75,0,0,1,3.27-4.75,4.48,4.48,0,0,1,3.31-1.21,7.93,7.93,0,0,1,2.27.32,13.14,13.14,0,0,1,2.43,1,23.28,23.28,0,0,1,2.46,1.5l.29.2c-.07,1.27-.16,2.61-.26,4a69.38,69.38,0,0,1-.94,7.4l-2.86,19.91a20.23,20.23,0,0,1-3,1.71,7.35,7.35,0,0,1-2.92.8C6971.61,7047.66,6970.16,7047.31,6968.71,7044.76Z" transform="translate(-6808.74 -6932.61)" style="fill:#444"/><path d="M7017.39,7102.88a6.94,6.94,0,0,0,3,6.1,8.24,8.24,0,0,0,4.57,1.34,12.85,12.85,0,0,0,4.3-.77c.94-.34,1.48-.51,1.7-.56l19.67-5a12.23,12.23,0,0,0,4.14-1.71,6.19,6.19,0,0,0,2.62-5c0-.39,0-.8-.06-1.24,0-.14,0-.32,0-.46,0-.3.06-1.09.17-2.37q.18-2.29.48-5.59c.19-2.2.42-4.55.66-7.07s.48-4.93.68-7.16h0c1.07.56,2.17,1.09,3.28,1.57a31.72,31.72,0,0,0,12.68,2.63,37.06,37.06,0,0,0,13.61-2.49,40.68,40.68,0,0,0,11.26-6.69,48.18,48.18,0,0,0,8.77-9.74,62.05,62.05,0,0,0,6.25-11.68,69.63,69.63,0,0,0,3.77-12.76,67.75,67.75,0,0,0,1.29-13.05,57.88,57.88,0,0,0-1.76-14.36,39.2,39.2,0,0,0-5.69-12.71,30.06,30.06,0,0,0-10.14-9.19,29.58,29.58,0,0,0-14.54-3.47,46.71,46.71,0,0,0-16,2.81c-1.61.59-3.22,1.25-4.8,2,0-.11,0-.21,0-.28a8.63,8.63,0,0,0,.08-1.06,6,6,0,0,0-.84-3.15,5.51,5.51,0,0,0-5-2.59h-.77l-.74.23a114.13,114.13,0,0,1-13.37,3.36c-4.77.92-9.43,1.81-14,2.7l-.11,0a7,7,0,0,0-5.3,4.4,18.24,18.24,0,0,0-.84,4.64l-9.11,108.17Zm62.26-88.9a16.14,16.14,0,0,1,1.6,4.58,33,33,0,0,1,.6,6.52,44.15,44.15,0,0,1-.93,8.94,31.48,31.48,0,0,1-2.67,7.83,15.35,15.35,0,0,1-3.85,5,6,6,0,0,1-4,1.4,7.24,7.24,0,0,1-4.87-1.62,11.73,11.73,0,0,1-3.18-4.2c0-.53.08-1.08.14-1.65.1-1.07.22-2.55.38-4.42s.33-4.25.56-7.21.46-6.54.75-11a19.77,19.77,0,0,1,1.73-2,18.42,18.42,0,0,1,3.09-2.57,19.51,19.51,0,0,1,3.56-1.86,7.82,7.82,0,0,1,2.91-.58,3.72,3.72,0,0,1,2.23.58A6.44,6.44,0,0,1,7079.65,7014Z" transform="translate(-6808.74 -6932.61)" style="fill:#444"/><path d="M7116.14,7102.88a6.94,6.94,0,0,0,3,6.1,8.27,8.27,0,0,0,4.58,1.34,12.84,12.84,0,0,0,4.29-.77c.94-.34,1.49-.51,1.7-.56l19.67-5a12.3,12.3,0,0,0,4.15-1.71,6.2,6.2,0,0,0,2.61-5c0-.39,0-.8-.06-1.24,0-.14,0-.32,0-.46,0-.3.07-1.09.17-2.37q.18-2.29.48-5.59c.2-2.2.42-4.55.67-7.07s.47-4.93.67-7.16h0c1.08.56,2.17,1.09,3.28,1.57a31.76,31.76,0,0,0,12.68,2.63,37,37,0,0,0,13.61-2.49,40.4,40.4,0,0,0,11.26-6.69,48.53,48.53,0,0,0,8.78-9.74,62.59,62.59,0,0,0,6.24-11.68,69.55,69.55,0,0,0,5.06-25.81,57.94,57.94,0,0,0-1.76-14.36,39,39,0,0,0-5.69-12.71,28.82,28.82,0,0,0-24.68-12.66,46.61,46.61,0,0,0-16,2.81c-1.62.59-3.23,1.25-4.81,2a1.86,1.86,0,0,0,0-.28,8.63,8.63,0,0,0,.08-1.06,6,6,0,0,0-.84-3.15,5.5,5.5,0,0,0-5-2.59h-.77l-.73.23a115.14,115.14,0,0,1-13.37,3.36c-4.78.92-9.44,1.81-14,2.7l-.12,0a7,7,0,0,0-5.3,4.4,19.18,19.18,0,0,0-.84,4.64l-9.11,108.17Zm62.26-88.9a16.14,16.14,0,0,1,1.6,4.58,33,33,0,0,1,.61,6.52,44.17,44.17,0,0,1-.94,8.94,32,32,0,0,1-2.66,7.83,15.51,15.51,0,0,1-3.86,5,6,6,0,0,1-4,1.4,7.22,7.22,0,0,1-4.87-1.62,11.75,11.75,0,0,1-3.19-4.2c0-.53.09-1.08.14-1.65.1-1.07.23-2.55.38-4.42s.33-4.25.56-7.21.47-6.54.75-11a19.77,19.77,0,0,1,1.73-2,18.42,18.42,0,0,1,3.09-2.57,19.27,19.27,0,0,1,3.57-1.86,7.81,7.81,0,0,1,2.9-.58,3.72,3.72,0,0,1,2.23.58A6.35,6.35,0,0,1,7178.4,7014Z" transform="translate(-6808.74 -6932.61)" style="fill:#444"/><path d="M7217.46,6998.84q1.59,6,3.29,12.63,1.76,6.81,3.5,13.76l3.46,13.79c1.14,4.55,2.26,8.92,3.33,13s2.07,7.84,3,11.34c.74,2.67,1.42,5.07,2,7.17-2.19,4.85-3.94,8.79-5.23,11.75-1.48,3.4-2.54,5.93-3.26,7.74-1,2.49-1.29,3.37-1.44,3.84a8.37,8.37,0,0,0-.48,2.55,6.25,6.25,0,0,0,2.26,5,7.4,7.4,0,0,0,3.26,1.49c1.87.4,3.63.76,5.3,1.08s3.12.64,4.62,1,3,.74,4.54,1.16,3.07.92,4.72,1.52l.15.05a7.2,7.2,0,0,0,2.21.31,5.75,5.75,0,0,0,4.17-1.65,6.65,6.65,0,0,0,1.25-1.74l.06-.11,16.45-36.62,30.7-68.66a12.3,12.3,0,0,0,1.34-5,6.48,6.48,0,0,0-5.37-6.51c-3.87-.84-7.78-1.71-11.62-2.6a82.56,82.56,0,0,1-10.82-3.31l-.87-.33h-.53a6.24,6.24,0,0,0-1-.07,6.12,6.12,0,0,0-5.77,3.9c-.37,1-.87,2.32-1.51,4.16s-1.35,3.77-2.18,6.06-1.76,4.82-2.73,7.51-1.94,5.35-2.93,8.05c-.81,2.2-1.6,4.36-2.38,6.5l-5.73-31.22a5.79,5.79,0,0,0-6-5,7.39,7.39,0,0,0-2.24.32l-.22.08a76.83,76.83,0,0,1-11.13,3.29l-12.06,2.62-.15,0a6.28,6.28,0,0,0-5,6.18,16.67,16.67,0,0,0,.1,1.76A10.84,10.84,0,0,0,7217.46,6998.84Z" transform="translate(-6808.74 -6932.61)" style="fill:#444"/><path d="M7099.63,7194.38a37.59,37.59,0,0,0,1.27-3.64,9.52,9.52,0,0,0,.42-2.71,6.71,6.71,0,0,0-3.2-6,7.54,7.54,0,0,0-3.89-1.15c-.87,0-2.27,0-4.29.12l-6.89.26-8.69.29-4,.12c0-.22,0-.44.08-.66.08-.74.15-1.61.21-2.76.06-1.41.08-2.44.08-3.1s0-1.08,0-1.64c0-.32.05-.9.18-1.87,0,0,0-.09,0-.14l18.58-.9,5.38-.3c1.69-.09,3.37-.17,5-.22a8.93,8.93,0,0,0,6.18-2.18,10.57,10.57,0,0,0,2.29-3.55l3.32-8.65c1.28-3.25,2.27-5.73,2.94-7.35,1.12-2.69,1.43-3.74,1.43-4.87a6.92,6.92,0,0,0-3.84-6.37,7.17,7.17,0,0,0-2.38-.7,8.82,8.82,0,0,0-.94-.07h-.12l-5.63.26c-2.62.13-5.76.26-9.39.41l-12,.48q-6.47.26-13,.48l-36.64,1.27-5.86,9.86c-.75,1.25-1.63,2.64-2.61,4.13s-2,3.12-2.9,4.54-1.69,2.78-2.33,3.95a9.52,9.52,0,0,0-1.52,4.55,6.51,6.51,0,0,0,5.24,6.34,26.21,26.21,0,0,0,6.4.57c.63,0,1.24,0,1.8,0h.35l-.94,13.45-1.1,1.75c-.91,1.46-2,3.15-3.18,5.05s-2.46,3.85-3.77,5.85-2.39,3.59-3.4,5a9.31,9.31,0,0,0-2.07,5.43c0,1,.34,5.86,7.07,6.69,1.06.14,2.42.23,4.13.29l-.08.88c-.19,2.43-.44,5.14-.73,8.05s-.58,6.09-.83,9.16-.47,6.15-.64,9.19-.25,5.93-.2,8.5a7.18,7.18,0,0,0,4.18,6.75,11.54,11.54,0,0,0,4.77,1,18.49,18.49,0,0,0,4.86-.81c1.57-.44,3.31-1,5.19-1.64s3.78-1.35,5.68-2.11,3.56-1.44,5.12-2.09,2.92-1.24,4-1.73a19,19,0,0,0,2.36-1.18,7.36,7.36,0,0,0,2.71-3.06,9,9,0,0,0,.83-2.88l2.33-28.38,17.32-.3a8.33,8.33,0,0,0,8.53-5.54c.78-1.86,1.6-3.75,2.44-5.68s1.65-3.87,2.37-5.68Z" transform="translate(-6808.74 -6932.61)" style="fill:#444"/><path d="M7255.82,7252.52a20.08,20.08,0,0,0,3.46-1.43,6.6,6.6,0,0,0,1.85-1.58l-.1,1.38v.2a7.38,7.38,0,0,0,2.52,5.92,7.77,7.77,0,0,0,5.08,1.8,13.36,13.36,0,0,0,4.18-.69c.94-.31,1.7-.57,2.23-.76l19.28-6.65a11.81,11.81,0,0,0,4-1.66,6.19,6.19,0,0,0,2.62-5c0-.39,0-.8-.06-1.25,0-.14,0-.32,0-.49s0-.72.09-1.45c.08-.94.17-2,.3-3.36s.26-2.72.4-4.2.3-2.88.44-4.18.28-2.5.38-3.48c.07-.68.12-1.14.15-1.33l.07-.33,0-.35q.07-1.14.18-2.49c.07-.92.18-2.14.33-3.69s.34-3.57.56-6,.53-5.47.93-9.23V7202a6.83,6.83,0,0,1,1.45-4,13.78,13.78,0,0,1,3.85-3.3,18,18,0,0,1,4.6-1.92,15.7,15.7,0,0,1,3.45-.59,2.28,2.28,0,0,1,.95.14,2.13,2.13,0,0,1,.68.87,9.91,9.91,0,0,1,.75,2.87,37.59,37.59,0,0,1,.29,5,42.47,42.47,0,0,1-.3,4.77c-.22,2-.44,4-.64,6-.35,3.68-.63,6.65-.86,8.91s-.4,4.11-.52,5.49-.22,2.28-.31,2.9c-.11.81-.2,1.54-.25,2.17s-.11,1-.2,1.66c-.11.81-.23,1.93-.36,3.33s-.3,3.14-.52,5.39-.51,5.25-.86,8.95l0,.23v.24a7.4,7.4,0,0,0,2.49,6,7.84,7.84,0,0,0,5.12,1.69,12.79,12.79,0,0,0,4.29-.77c.94-.33,1.49-.5,1.8-.58l18.39-5.06a14.19,14.19,0,0,0,3.8-1.57,6.13,6.13,0,0,0,2.8-5.2,11.19,11.19,0,0,0-.06-1.19c0-.14,0-.31,0-.51,0-2.32,0-4.61.07-6.78s.19-4.07.42-6l3.2-30.13c.16-1.42.27-2.85.33-4.24s.08-2.62.08-3.84a41.66,41.66,0,0,0-2-13.48,25.52,25.52,0,0,0-5.79-9.68,21.83,21.83,0,0,0-8.9-5.52,32.38,32.38,0,0,0-10.05-1.54,46.35,46.35,0,0,0-8.31.78,64.81,64.81,0,0,0-8.33,2.12c-2.45.8-4.92,1.74-7.35,2.79.11-1.09.23-2.24.35-3.45q.45-4.59.9-9.67c.29-3.37.57-6.48.82-9.34s.45-5.26.6-7.2c.24-3.08.24-3.15.24-3.41,0-4.33-3.13-7.36-7.61-7.36a12.37,12.37,0,0,0-4.41.85,6.74,6.74,0,0,1-1.25.41l-.13,0-21.17,5a10.26,10.26,0,0,0-4.67,2.16,6.49,6.49,0,0,0-2.14,4.82c0,.42,0,.84.06,1.25a.66.66,0,0,1,0,.14l-7.72,98.47c-.51-1.92-.9-3.57-1.14-4.9-.34-1.81-.59-3.25-.76-4.33a16.59,16.59,0,0,0-.81-3.38,6,6,0,0,0-5.66-3.83,8.91,8.91,0,0,0-2.49.39,20.15,20.15,0,0,0-1.94.7,43.84,43.84,0,0,1-5,1.61,17.42,17.42,0,0,1-4,.55,2.33,2.33,0,0,1-.76-.1l0,0a3.6,3.6,0,0,1-.39-1.11,16.19,16.19,0,0,1-.31-3.57c.14-4.29.52-9,1.12-13.9.44-3.66.9-7.36,1.39-11.05h9.69l.22,0a8.63,8.63,0,0,0,5.23-2,10.25,10.25,0,0,0,2.25-3.26l2.69-6c1.15-2.57,2-4.59,2.62-6.18,1-2.51,1.24-3.43,1.24-4.48a6.46,6.46,0,0,0-2.63-5.41,6.89,6.89,0,0,0-4.08-1.36h-14.41q.61-5.86,1.16-10.83c.51-4.74.9-8.56,1.16-11.36l0-.23v-.38a5.62,5.62,0,0,0-5.89-5.59,6.41,6.41,0,0,0-1,.07h-.33l-.69.21c-2.24.66-4.42,1.24-6.49,1.74s-4.16.94-6.14,1.31-4.14.77-6.21,1.14-4.34.79-6.58,1.23l-.11,0a10.85,10.85,0,0,0-2.06.66,6.29,6.29,0,0,0-3.26,3.57,14.56,14.56,0,0,0-.77,3c-.17,1-.34,2.38-.52,4.17s-.4,3.76-.67,6.28c-.16,1.45-.34,3.1-.56,4.94h-3.32l-1.51,2c-.17.22-.6.84-1.28,1.85s-1.29,1.92-2.11,3.12-1.71,2.55-2.63,4l-2.52,3.9c-.6.95-1.12,1.78-1.56,2.52l2.86-25.66-5.87.3c-4,.2-7.82.52-11.47.95-3.49.41-7.08.87-10.68,1.36a14.89,14.89,0,0,0-3.53.65,6.47,6.47,0,0,0-3.62,3q-2-1.12-4-2a30.49,30.49,0,0,0-12.64-2.69,38.82,38.82,0,0,0-17.13,3.93,42.58,42.58,0,0,0-14,11,52.66,52.66,0,0,0-9.28,16.52,62.45,62.45,0,0,0-3.38,20.92,48.88,48.88,0,0,0,3.14,17.9,43.79,43.79,0,0,0,8.38,13.76,37.75,37.75,0,0,0,12.19,8.95,34.23,34.23,0,0,0,14.3,3.18,31.72,31.72,0,0,0,18.41-6.24,19.88,19.88,0,0,0,1.26,2.72,6.29,6.29,0,0,0,5.53,3.52,6.07,6.07,0,0,0,2.7-.56l19.77-8.36c4.4-1.77,5.33-4.53,5.33-6.55a6,6,0,0,0-2.46-4.74,7.37,7.37,0,0,1-.75-.74,3.58,3.58,0,0,1-.5-.79,3,3,0,0,1-.09-.88v-.12l4.6-41.14a7.1,7.1,0,0,0,4.92,3,39.47,39.47,0,0,0,6.72.41H7203q-.33,3.49-.64,7.23c-.36,4.31-.8,9-1.3,13.94-.15,1.67-.28,3.27-.38,4.8s-.16,3.18-.16,4.73c0,9.62,2.37,17.05,7,22.06s12.1,7.71,21.81,7.71a34.75,34.75,0,0,0,6.25-.63c2.16-.39,4.44-.9,6.77-1.53s4.58-1.27,6.92-2S7253.75,7253.21,7255.82,7252.52ZM7139.23,7226c-1.11-1.94-2.43-6.05-2.43-14.59a40,40,0,0,1,.64-6.62,27.4,27.4,0,0,1,2-6.76,14.44,14.44,0,0,1,3.27-4.75,4.47,4.47,0,0,1,3.3-1.21,8.25,8.25,0,0,1,2.27.31,13.31,13.31,0,0,1,2.43,1,22.47,22.47,0,0,1,2.47,1.5l.29.2c-.08,1.27-.16,2.61-.26,4a72.4,72.4,0,0,1-.94,7.4l-2.86,19.91a21.72,21.72,0,0,1-3,1.71,7.39,7.39,0,0,1-2.92.8C7142.14,7228.9,7140.68,7228.55,7139.23,7226Z" transform="translate(-6808.74 -6932.61)" style="fill:#444"/><path d="M7362.57,7232.73a43.71,43.71,0,0,0,10.56,14.14,47.08,47.08,0,0,0,15,8.88,50.46,50.46,0,0,0,17.33,3.06,44.72,44.72,0,0,0,6.47-.53c2.32-.34,4.75-.81,7.23-1.41s4.83-1.25,7.17-2a68.1,68.1,0,0,0,6.51-2.31,33.29,33.29,0,0,0,5-2.52c2.64-1.66,4-3.73,4-6.15a7.81,7.81,0,0,0-.18-1.58,5.94,5.94,0,0,0-.17-.7q.06-3.09.09-5.7c0-2,0-3.78,0-5.22s0-2.83.07-4.34l.16-5.16h-5.16a9,9,0,0,0-2.05.24l-1.7.38-.56.27c-1.59.79-3.33,1.6-5.17,2.42s-3.57,1.48-5.46,2.12a42.47,42.47,0,0,1-5.7,1.48,32.1,32.1,0,0,1-6,.54,22.43,22.43,0,0,1-5.09-.57,15.8,15.8,0,0,1-2.08-.64,56.43,56.43,0,0,0,16.37-2.52,48.78,48.78,0,0,0,13.67-6.68,34.37,34.37,0,0,0,9.27-9.74,22.38,22.38,0,0,0,3.57-11.8,30.84,30.84,0,0,0-2.65-12.31,35.2,35.2,0,0,0-7.41-10.86,38.17,38.17,0,0,0-11.4-7.82,35.9,35.9,0,0,0-14.92-3.06,51.75,51.75,0,0,0-20.53,4,48.78,48.78,0,0,0-26.6,27.34,53.79,53.79,0,0,0-3.7,19.95A43.39,43.39,0,0,0,7362.57,7232.73Zm50.35-38.93a13.27,13.27,0,0,1-2.29,1.37,45.87,45.87,0,0,1-7.3,2.66c-1.09.32-2.29.64-3.59.95a17.4,17.4,0,0,1,2.21-3.19,10.62,10.62,0,0,1,3.19-2.53,6.9,6.9,0,0,1,5.23-.46,7.88,7.88,0,0,1,2,.84A3.62,3.62,0,0,1,7412.92,7193.8Z" transform="translate(-6808.74 -6932.61)" style="fill:#444"/><path d="M7444.22,7251.53a6.93,6.93,0,0,0,3,5.94,8.27,8.27,0,0,0,4.58,1.34,13.3,13.3,0,0,0,4.17-.69c.95-.31,1.71-.57,2.27-.77l19.57-6.94a11.61,11.61,0,0,0,3.94-1.66,6.17,6.17,0,0,0,2.63-5c0-.39,0-.81-.06-1.24a3.46,3.46,0,0,1,0-.45c0-.21,0-.64.1-1.28.07-.83.17-1.79.31-2.89s.29-2.54.43-4c.11-1.28.25-2.51.39-3.65s.28-2.36.36-3.31.12-1.52.12-1.84c.05-.72.11-1.5.17-2.33s.17-2.16.27-3.7.25-3.3.48-5.6l.84-8.87a10.87,10.87,0,0,1,1.75-4.95,10.46,10.46,0,0,1,3.4-3.05,14,14,0,0,1,4.66-1.61,37.09,37.09,0,0,1,5.87-.49c1.27,0,2.49.06,3.62.17l5.87.55c.05,1.63.14,3.22.29,4.73a27.5,27.5,0,0,0,1.64,7.06,26,26,0,0,0,3.72,6.62,31.72,31.72,0,0,0,6.26,6c.58.45,1.48,1.11,2.83,2.05s2.61,1.83,4,2.81l6.7,4.64a1.81,1.81,0,0,1,.53.5h0a8.07,8.07,0,0,1-1.87.53,12,12,0,0,1-2,.19,14.38,14.38,0,0,1-6.21-1.31,20.35,20.35,0,0,1-5.46-3.64,6.65,6.65,0,0,0-4.65-1.9,5.87,5.87,0,0,0-6,5.95,5.29,5.29,0,0,0,.11,1.06l1.07,22.35,2.48,1.34a36.84,36.84,0,0,0,9.52,3.55,47.18,47.18,0,0,0,10.3,1.11,51.66,51.66,0,0,0,13.83-1.91,42.56,42.56,0,0,0,12.62-5.78,32.3,32.3,0,0,0,9.45-9.92,27,27,0,0,0,3.83-14.3,28.84,28.84,0,0,0-.58-5.75,21.83,21.83,0,0,0-2.35-6.25,29,29,0,0,0-4.44-5.94,43.2,43.2,0,0,0-7-5.76l-13.72-9.2a3.56,3.56,0,0,1-.68-.64,7.13,7.13,0,0,1-.23-2,2.39,2.39,0,0,1,0-.35,1.15,1.15,0,0,1,.23-.18,3.87,3.87,0,0,1,1.23-.4,14,14,0,0,1,2.32-.19,9.6,9.6,0,0,1,3.13.5,16.38,16.38,0,0,1,3.22,1.52,22.26,22.26,0,0,1,3.07,2.29c1.11,1,2.24,2,3.36,3.07a6.21,6.21,0,0,0,4.36,1.76,6.69,6.69,0,0,0,4-1.31,6.36,6.36,0,0,0,2.47-5.31v-.3c-.2-3.24-.35-6.37-.44-9.3s-.28-6.23-.54-9.38l-.16-2.05-1.55-1.34a29.63,29.63,0,0,0-10.66-6,37.75,37.75,0,0,0-11.17-1.7,40.22,40.22,0,0,0-13.37,2.31,41.93,41.93,0,0,0-11.63,6.25,35.26,35.26,0,0,0-6.18,6.08l3.08-15.23h-6.11a34,34,0,0,0-7.94,1.06,71.73,71.73,0,0,0-8.67,2.69,76.55,76.55,0,0,0-7.42,3.3c0-.31,0-.55,0-.72a5.91,5.91,0,0,0-.84-3.15,5.51,5.51,0,0,0-5-2.59h-.77l-.73.23a116.81,116.81,0,0,1-13.44,3.36q-7.24,1.36-14,2.7l-.12,0a7,7,0,0,0-5.3,4.39,19.39,19.39,0,0,0-.84,4.63l-6.43,73.3Z" transform="translate(-6808.74 -6932.61)" style="fill:#444"/><path d="M7542.24,7356.73a6.49,6.49,0,0,0-5.36-6.51c-3.82-.82-7.74-1.69-11.63-2.6a81,81,0,0,1-10.82-3.3l-.86-.33H7513a6.19,6.19,0,0,0-1-.07,6.11,6.11,0,0,0-5.77,3.9c-.38,1-.87,2.32-1.52,4.16s-1.34,3.77-2.18,6.06l-2.72,7.5q-1.45,4-2.94,8.05-1.22,3.3-2.37,6.51l-5.73-31.22a5.8,5.8,0,0,0-6-5,7.18,7.18,0,0,0-2.2.31l-.13,0-.12,0a77.21,77.21,0,0,1-11.13,3.29l-12.06,2.61-.16,0a6.63,6.63,0,0,0-3.7,2.36l1.14-10.25-5.88.3c-4,.2-7.82.52-11.47.95s-7.09.87-10.67,1.36a15.19,15.19,0,0,0-3.54.65,6.54,6.54,0,0,0-3.62,3q-2-1.12-4-2a30.53,30.53,0,0,0-12.64-2.69,38.79,38.79,0,0,0-17.13,3.93,42.51,42.51,0,0,0-14,11,52.84,52.84,0,0,0-9.27,16.52c-.3.83-.57,1.68-.83,2.54a80.29,80.29,0,0,0,.51-9.05,53.7,53.7,0,0,0-1.49-13.14,41.77,41.77,0,0,0-4.5-11,42.81,42.81,0,0,0-7.26-9.07,75,75,0,0,0-9.2-7.38,54.59,54.59,0,0,0-17.64-7.91,90.1,90.1,0,0,0-23-2.68c-4.84,0-8.9.09-12.09.27a52,52,0,0,0-8.71,1.12,25,25,0,0,0-6.82,2.55,31.92,31.92,0,0,0-5.51,4l-18.93,17.48-.12.12a6.73,6.73,0,0,0-1.93,5,8.13,8.13,0,0,0,1,4,6.34,6.34,0,0,0,5.61,3.32,27,27,0,0,0,3.86-.31c1.3-.18,2.67-.41,4.06-.66l2.07-.39-.59,8.71-.45,5.45c-.15,1.85-.28,3.58-.38,5.19s-.19,2.89-.29,4.07l-.21,2.6c-.16,1.5-.32,3.37-.5,5.59s-.36,4.49-.56,6.89-.39,4.88-.56,7.35-.33,4.67-.48,6.66-.28,3.58-.41,4.89c0,.48-.08.88-.11,1.19l-8.72,16.49a7.19,7.19,0,0,0-.91,3.58,7.89,7.89,0,0,0,1,3.92,6.54,6.54,0,0,0,4.66,3.28l.44.08h14a164.77,164.77,0,0,0,21.48-1.44,123.89,123.89,0,0,0,21.44-4.77,99.25,99.25,0,0,0,19.7-8.7,67.62,67.62,0,0,0,16.53-13.41,61,61,0,0,0,11.29-18.68c.56-1.43,1-2.92,1.49-4.44a70.61,70.61,0,0,0-.42,7.65,49.09,49.09,0,0,0,3.14,17.9,43.85,43.85,0,0,0,8.39,13.76,37.75,37.75,0,0,0,12.19,8.95,34.16,34.16,0,0,0,14.3,3.18,30.68,30.68,0,0,0,12.9-3,31.81,31.81,0,0,0,5.5-3.28,19.16,19.16,0,0,0,1.27,2.71,6.29,6.29,0,0,0,5.52,3.53,6,6,0,0,0,2.69-.56l19.78-8.37c4.41-1.76,5.34-4.53,5.34-6.54a6,6,0,0,0-2.47-4.74,8.69,8.69,0,0,1-.75-.74,3.56,3.56,0,0,1-.49-.8,2.82,2.82,0,0,1-.09-.87v-.14l6.4-57.32a12.11,12.11,0,0,0,.48,1.34q1.59,6,3.29,12.63,1.74,6.81,3.49,13.77l3.47,13.79c1.14,4.55,2.26,8.92,3.33,13s2.07,7.86,3,11.34c.73,2.66,1.41,5.07,2,7.17-2.18,4.85-3.94,8.79-5.22,11.75-1.46,3.35-2.55,5.95-3.27,7.74-1,2.49-1.29,3.37-1.43,3.84a8.35,8.35,0,0,0-.49,2.54,6.29,6.29,0,0,0,2.26,5,7.62,7.62,0,0,0,3.26,1.49q2.81.6,5.31,1.08c1.56.31,3.11.64,4.62,1s3,.75,4.53,1.17,3.06.92,4.73,1.52l.16.05a7.06,7.06,0,0,0,2.19.31,5.73,5.73,0,0,0,4.17-1.65,6.64,6.64,0,0,0,1.26-1.75l.06-.11,16.44-36.62,30.71-68.65A12.27,12.27,0,0,0,7542.24,7356.73Zm-245.48,50.42c.06-.69.12-1.43.19-2.22l.67-8.19c.24-3,.52-6.32.81-9.82s.6-7.09.9-10.71.61-7.15.93-10.65.63-6.81.92-9.87l.56-5.58a14.47,14.47,0,0,1,6.38,1.72,14.9,14.9,0,0,1,5.48,5.36,35.45,35.45,0,0,1,4,8.69,32.47,32.47,0,0,1,1.36,9.37,53.45,53.45,0,0,1-1.6,13.35,27.71,27.71,0,0,1-4.75,10,21.39,21.39,0,0,1-8.23,6.43A26,26,0,0,1,7296.76,7407.15Zm104.15.09c-1.11-1.94-2.44-6.05-2.44-14.59a41.09,41.09,0,0,1,.64-6.62,28.14,28.14,0,0,1,2-6.76,14.75,14.75,0,0,1,3.27-4.75,4.49,4.49,0,0,1,3.31-1.21,8.3,8.3,0,0,1,2.27.31,13.91,13.91,0,0,1,2.43,1,26,26,0,0,1,2.47,1.49l.28.2c-.07,1.29-.16,2.63-.25,4a71.68,71.68,0,0,1-.95,7.41l-2.85,19.91a22.32,22.32,0,0,1-3,1.71,7.42,7.42,0,0,1-2.93.8C7403.82,7410.14,7402.36,7409.79,7400.91,7407.24Z" transform="translate(-6808.74 -6932.61)" style="fill:#444"/><path d="M7577.26,7308.08a7.15,7.15,0,0,0-2,.25c-4.8,1.22-9.42,2.45-13.74,3.65s-8.44,2.24-12.62,3.16a7.05,7.05,0,0,0-5.16,4.3,16.36,16.36,0,0,0-.85,4.82v.19l.74,73a6,6,0,0,0,.83,3.14,5.52,5.52,0,0,0,5,2.6h.64l.62-.16c2-.52,3.92-1,5.72-1.35s3.73-.74,5.54-1.06a6.84,6.84,0,0,0,5.58-4.46,17.68,17.68,0,0,0,.74-4.48c1.27-7.65,2.66-15.32,4.14-22.79,1.52-7.67,3.08-15.36,4.63-22.85.36-1.46.76-3.27,1.18-5.38s.86-4.29,1.31-6.59.87-4.59,1.29-7,.75-4.33,1.08-6.14.58-3.33.78-4.49a14.46,14.46,0,0,0,.37-2.66A5.65,5.65,0,0,0,7577.26,7308.08Z" transform="translate(-6808.74 -6932.61)" style="fill:#444"/><path d="M7568.77,7400.26a7.42,7.42,0,0,0-1.83.21c-4.71,1-9.29,1.92-13.61,2.85s-8.47,1.75-12.63,2.47l-.21,0a7,7,0,0,0-5.32,4.49,17.09,17.09,0,0,0-.75,4.56l-1.83,22.54,1.91,1.88,2.19,1.93h1.89a7.22,7.22,0,0,0,2.24-.32,106,106,0,0,1,12.82-3.35l13.37-2.64a7,7,0,0,0,5.3-4.39,16.86,16.86,0,0,0,.77-4.7q.3-3.61.45-5.68l.23-3.15c0-.51.06-.87.08-1.12a5.83,5.83,0,0,0,.15-1.3c0-.14,0-.39.06-.74.05-.59.11-1.47.19-2.65s.35-5,.35-5V7406A5.66,5.66,0,0,0,7568.77,7400.26Z" transform="translate(-6808.74 -6932.61)" style="fill:#444"/></g><g id="Layer_1" data-name="Layer 1"><path d="M6893.12,6969.62a9.42,9.42,0,0,1,.48-3.65,2.77,2.77,0,0,1,2-1.37l25.64-6.12a6.69,6.69,0,0,1,2-.29,1.51,1.51,0,0,1,1.41.62,5.67,5.67,0,0,1,.38,2.55l-.9,11.57q-.37,5.1-.82,10.11a61.77,61.77,0,0,1-1.34,8.77l-1.34,10.48c-.4,3.09-.77,6.45-1.12,10.06s-.72,7.66-1.12,12.13l-3.5,36.36a6.37,6.37,0,0,1-.3,1.33,1.57,1.57,0,0,1-1,1l-2.42,1q-1.9.73-4.51,1.69t-5.59,2q-3,1.06-5.66,1.95t-4.77,1.48a13.23,13.23,0,0,1-2.83.59,3.14,3.14,0,0,1-1.83-.55,2.43,2.43,0,0,1-.78-2.11,165.61,165.61,0,0,1,1-18.25q1-9.33,1.86-18.55a10.7,10.7,0,0,0,.12-1.91,9.94,9.94,0,0,1,.11-1.92h-27.28l-3.06,32.3a7,7,0,0,1-.26,1.29,1.66,1.66,0,0,1-1,1c-.2.1-1.18.45-2.95,1.07l-6.11,2.13-6.85,2.44c-2.27.81-4,1.44-5.18,1.88-.6.24-1.33.5-2.2.77a8.67,8.67,0,0,1-2.57.41,3,3,0,0,1-1.83-.59,2.55,2.55,0,0,1-.78-2.14c0-2.36.08-5.05.26-8.08s.38-6.19.63-9.51.55-6.72.9-10.21.69-6.93,1-10.33l.15-2.14a81.47,81.47,0,0,1-8.76-.33c-1.81-.22-2.72-.8-2.72-1.73a4.74,4.74,0,0,1,1.12-2.51c1-1.37,2.15-3,3.46-5s2.59-3.85,3.81-5.75l3.27-5.09c1-1.5,1.61-2.47,1.91-2.91l1.71-17.77c0-.1,0-.84.15-2.21s.22-3,.37-4.91.31-3.85.49-5.86.33-3.74.48-5.16a22.85,22.85,0,0,1,.41-3.62c.17-.69.76-1.15,1.75-1.4l25.34-6.12a6.79,6.79,0,0,1,2-.29,1.53,1.53,0,0,1,1.42.62,5.71,5.71,0,0,1,.37,2.55q-.53,5.31-.82,9.66t-.63,8.11q-.33,3.77-.71,7.15c-.25,2.26-.59,4.57-1,6.93l-1.49,11.44,27.05-.3q.68-9.81,1.49-16.67t1.05-10.84c.15-2.5.24-4.3.29-5.38S6893.12,6969.76,6893.12,6969.62Z" transform="translate(-6808.74 -6932.61)"/><path d="M7008,7051.92a2.18,2.18,0,0,0-.07.55v.48a6.9,6.9,0,0,0,.59,3.06,8.37,8.37,0,0,0,1.31,2,10.49,10.49,0,0,0,1.3,1.25c.4.33.6.61.6.85,0,.69-.75,1.33-2.24,1.92l-20.05,8.48a1,1,0,0,1-.52.08c-.4,0-.8-.35-1.19-1a16.19,16.19,0,0,1-1.16-2.62c-.37-1.05-.72-2.18-1-3.39s-.61-2.32-.86-3.35a30.54,30.54,0,0,1-10.13,7.89,25.69,25.69,0,0,1-10.81,2.51,29.17,29.17,0,0,1-12.22-2.73,32.78,32.78,0,0,1-10.59-7.78,38.73,38.73,0,0,1-7.41-12.21,43.75,43.75,0,0,1-2.8-16.08,57.14,57.14,0,0,1,3.09-19.24,47.87,47.87,0,0,1,8.39-15,37.52,37.52,0,0,1,12.33-9.7,33.68,33.68,0,0,1,14.95-3.43,25.48,25.48,0,0,1,10.58,2.25,45.24,45.24,0,0,1,9.47,5.79,27.94,27.94,0,0,0,.52-3.54,8,8,0,0,1,.33-2.07,1.56,1.56,0,0,1,1-1,11.52,11.52,0,0,1,2.46-.41q5.37-.74,10.69-1.36t11.15-.92Zm-22.28-27.81a76.54,76.54,0,0,0,1-7.92c.17-2.48.31-4.76.41-6.82-.79-.59-1.65-1.21-2.57-1.85a29.44,29.44,0,0,0-3-1.81,18.91,18.91,0,0,0-3.36-1.36,13,13,0,0,0-3.68-.52,9.43,9.43,0,0,0-6.75,2.59,19.69,19.69,0,0,0-4.4,6.34,33.17,33.17,0,0,0-2.38,8,45.71,45.71,0,0,0-.71,7.45q0,11.65,3.09,17.07t8.61,5.42a12.19,12.19,0,0,0,5-1.25,27.88,27.88,0,0,0,5.58-3.47Z" transform="translate(-6808.74 -6932.61)"/><path d="M7059.69,6993.66a60.92,60.92,0,0,1,13.12-6.71,41.37,41.37,0,0,1,14.31-2.51,24.56,24.56,0,0,1,12.11,2.84,24.87,24.87,0,0,1,8.46,7.67,34,34,0,0,1,5,11.1,52.69,52.69,0,0,1,1.6,13.12,63.52,63.52,0,0,1-1.19,12.1,64.7,64.7,0,0,1-3.51,11.83,56.28,56.28,0,0,1-5.73,10.73,42.89,42.89,0,0,1-7.87,8.74,35.3,35.3,0,0,1-9.87,5.87,32.07,32.07,0,0,1-11.78,2.14,26.53,26.53,0,0,1-10.69-2.22,42.46,42.46,0,0,1-9.58-5.75c0,.25-.06,1.14-.19,2.69s-.28,3.43-.48,5.64-.42,4.59-.67,7.12-.48,4.9-.67,7.12-.36,4.09-.49,5.64-.18,2.44-.18,2.69,0,.72,0,1a6.85,6.85,0,0,1,0,.77,1.23,1.23,0,0,1-.56,1,9.08,9.08,0,0,1-2.49.92l-19.61,4.94c-.54.15-1.26.38-2.16.7a7.69,7.69,0,0,1-2.61.48,3.19,3.19,0,0,1-1.82-.52,2.13,2.13,0,0,1-.78-1.92l9.09-108a15.22,15.22,0,0,1,.56-3.36,2.05,2.05,0,0,1,1.67-1.21q6.78-1.34,13.94-2.69a122,122,0,0,0,13.94-3.51c.39,0,.63.07.71.19a1.13,1.13,0,0,1,.11.55,2.93,2.93,0,0,1,0,.44c0,.2-.1.64-.22,1.33s-.3,1.73-.53,3.13S7060.09,6991.15,7059.69,6993.66Zm-1.49,21.61q-.45,7.06-.78,11.5t-.56,7.19c-.15,1.84-.27,3.29-.37,4.35s-.18,2-.22,3a17.18,17.18,0,0,0,5.06,7.19,12.27,12.27,0,0,0,8.05,2.76,11,11,0,0,0,7.19-2.54,20.22,20.22,0,0,0,5.15-6.6,36.94,36.94,0,0,0,3.09-9.07,48.43,48.43,0,0,0,1-10,37.77,37.77,0,0,0-.7-7.52,21.33,21.33,0,0,0-2.13-6,11.27,11.27,0,0,0-3.54-4,8.73,8.73,0,0,0-5-1.44,12.91,12.91,0,0,0-4.73.92,24,24,0,0,0-4.51,2.36,23.28,23.28,0,0,0-3.91,3.25,23.69,23.69,0,0,0-2.87,3.5Z" transform="translate(-6808.74 -6932.61)"/><path d="M7158.45,6993.66a60.62,60.62,0,0,1,13.11-6.71,41.37,41.37,0,0,1,14.31-2.51,23.82,23.82,0,0,1,20.57,10.51,34,34,0,0,1,5,11.1,52.69,52.69,0,0,1,1.6,13.12,63.52,63.52,0,0,1-1.19,12.1,64.68,64.68,0,0,1-3.5,11.83,56.32,56.32,0,0,1-5.74,10.73,42.89,42.89,0,0,1-7.87,8.74,35.16,35.16,0,0,1-9.87,5.87,32,32,0,0,1-11.78,2.14,26.53,26.53,0,0,1-10.69-2.22,42.68,42.68,0,0,1-9.58-5.75c0,.25-.06,1.14-.18,2.69s-.29,3.43-.49,5.64-.42,4.59-.67,7.12-.47,4.9-.67,7.12-.36,4.09-.48,5.64-.19,2.44-.19,2.69a9.66,9.66,0,0,0,0,1c0,.27,0,.52,0,.77a1.21,1.21,0,0,1-.56,1,9.08,9.08,0,0,1-2.49.92l-19.6,4.94c-.55.15-1.27.38-2.17.7a7.68,7.68,0,0,1-2.6.48,3.2,3.2,0,0,1-1.83-.52,2.13,2.13,0,0,1-.78-1.92l9.09-108a15.85,15.85,0,0,1,.56-3.36,2.05,2.05,0,0,1,1.68-1.21q6.78-1.34,13.93-2.69a122,122,0,0,0,13.94-3.51c.4,0,.63.07.71.19a1.13,1.13,0,0,1,.11.55,2.93,2.93,0,0,1,0,.44c0,.2-.1.64-.22,1.33s-.3,1.73-.52,3.13S7158.84,6991.15,7158.45,6993.66Zm-1.49,21.61q-.45,7.06-.79,11.5t-.56,7.19c-.15,1.84-.27,3.29-.37,4.35s-.17,2-.22,3a17.11,17.11,0,0,0,5.07,7.19,12.23,12.23,0,0,0,8.05,2.76,11,11,0,0,0,7.19-2.54,20.33,20.33,0,0,0,5.14-6.6,36.13,36.13,0,0,0,3.09-9.07,48.45,48.45,0,0,0,1-10,37.74,37.74,0,0,0-.71-7.52,20.73,20.73,0,0,0-2.13-6,11.27,11.27,0,0,0-3.54-4,8.73,8.73,0,0,0-5-1.44,13,13,0,0,0-4.73.92,24,24,0,0,0-4.51,2.36,25.26,25.26,0,0,0-6.78,6.75Z" transform="translate(-6808.74 -6932.61)"/><path d="M7252.73,7100.37a2,2,0,0,1-.34.48.88.88,0,0,1-.63.18,2.27,2.27,0,0,1-.67-.07q-2.68-1-5.07-1.62c-1.59-.45-3.17-.85-4.73-1.22s-3.17-.71-4.81-1-3.38-.68-5.22-1.07a2.66,2.66,0,0,1-1.15-.48,1.37,1.37,0,0,1-.41-1.14,4.73,4.73,0,0,1,.26-1.07c.17-.57.61-1.73,1.3-3.47s1.77-4.28,3.21-7.6,3.43-7.78,6-13.38q-1.12-3.69-2.53-8.85t-3-11.28q-1.6-6.12-3.32-12.95T7228.1,7022q-1.76-7-3.51-13.79t-3.39-13a6.32,6.32,0,0,1-.59-2,11.05,11.05,0,0,1-.08-1.29c0-.69.4-1.13,1.19-1.33l12.08-2.61a81.75,81.75,0,0,0,11.85-3.51,2.27,2.27,0,0,1,.67-.07c.64,0,1,.25,1,.74l9.09,49.55c.2-.59.59-1.65,1.16-3.2s1.24-3.41,2-5.57,1.63-4.55,2.57-7.15,1.92-5.27,2.91-8,2-5.39,2.94-8.07l2.72-7.49q1.27-3.46,2.2-6.12c.62-1.77,1.11-3.1,1.46-4a1.1,1.1,0,0,1,1.11-.74.68.68,0,0,1,.3,0,1,1,0,0,0,.3,0,86.54,86.54,0,0,0,11.48,3.51q5.88,1.36,11.7,2.61a1.56,1.56,0,0,1,1.42,1.63,8.24,8.24,0,0,1-.9,2.95l-30.71,68.65Z" transform="translate(-6808.74 -6932.61)"/><path d="M7095.1,7187.36a33.21,33.21,0,0,1-1.12,3.17l-1.86,4.68c-.7,1.75-1.47,3.59-2.32,5.54s-1.66,3.84-2.45,5.71a4.68,4.68,0,0,1-1.23,1.84,5,5,0,0,1-2.87.67l-21.77.37-2.68,32.74a4,4,0,0,1-.37,1.29,2.35,2.35,0,0,1-.9,1c-.15.09-.73.38-1.75.84s-2.3,1-3.84,1.66-3.23,1.33-5.06,2.07-3.66,1.41-5.45,2-3.42,1.13-4.91,1.54a13.94,13.94,0,0,1-3.51.63,6.55,6.55,0,0,1-2.72-.55,2.21,2.21,0,0,1-1.23-2.25c-.05-2.46,0-5.17.19-8.15s.38-6,.63-9.07.52-6.1.82-9.07.55-5.69.75-8.15l.52-6.19a82.52,82.52,0,0,1-8.94-.34c-1.79-.22-2.69-.8-2.69-1.73a4.77,4.77,0,0,1,1.12-2.51Q7023,7203,7025,7200c1.32-2,2.58-4,3.8-5.9s2.29-3.61,3.21-5.09,1.5-2.38,1.75-2.73l1.41-20.28c-.94,0-1.76,0-2.46,0l-1.9.07-1.6.08q-.75,0-1.56,0a22.46,22.46,0,0,1-5.11-.4c-1-.27-1.53-.78-1.53-1.51a6.14,6.14,0,0,1,.9-2.14c.59-1.08,1.33-2.32,2.2-3.73s1.81-2.87,2.83-4.42,1.92-3,2.72-4.31l4.47-7.53L7068,7141q6.55-.21,13-.48l12-.48c3.65-.14,6.79-.28,9.42-.4l5.52-.26.41,0a2.13,2.13,0,0,1,.71.22,1.94,1.94,0,0,1,1,1.88,14.75,14.75,0,0,1-1,2.95q-1.05,2.51-3,7.45l-3.28,8.55a5.76,5.76,0,0,1-1.2,1.92,4.43,4.43,0,0,1-2.83.74c-1.69,0-3.4.12-5.14.22l-5.37.29-22.65,1.11c-.3,1.92-.51,3.34-.64,4.28s-.2,1.71-.22,2.32,0,1.23,0,1.84,0,1.59-.07,2.92c0,.93-.11,1.72-.19,2.36s-.15,1.26-.22,1.88-.15,1.26-.23,2-.13,1.55-.18,2.58l9.65-.29,8.72-.3,6.89-.26c1.94-.07,3.31-.11,4.1-.11a2.63,2.63,0,0,1,1.34.45,1.79,1.79,0,0,1,.75,1.69A4.55,4.55,0,0,1,7095.1,7187.36Z" transform="translate(-6808.74 -6932.61)"/><path d="M7178.5,7233.16a2.22,2.22,0,0,0-.08.55v.48a6.89,6.89,0,0,0,.6,3.06,8.36,8.36,0,0,0,1.3,2,11.29,11.29,0,0,0,1.31,1.25c.39.32.59.61.59.85,0,.69-.74,1.33-2.23,1.92l-20.05,8.48a1,1,0,0,1-.52.07c-.4,0-.8-.34-1.2-1a16.25,16.25,0,0,1-1.15-2.62q-.56-1.58-1-3.39c-.32-1.2-.6-2.32-.85-3.35a30.47,30.47,0,0,1-10.14,7.89,25.68,25.68,0,0,1-10.81,2.5,29.23,29.23,0,0,1-12.22-2.72,32.84,32.84,0,0,1-10.58-7.78,38.94,38.94,0,0,1-7.42-12.21,44,44,0,0,1-2.79-16.08,57.14,57.14,0,0,1,3.09-19.24,47.56,47.56,0,0,1,8.39-15,37.32,37.32,0,0,1,12.33-9.7,33.67,33.67,0,0,1,14.94-3.43,25.49,25.49,0,0,1,10.59,2.25,44.92,44.92,0,0,1,9.46,5.79,26.21,26.21,0,0,0,.52-3.54,7.5,7.5,0,0,1,.34-2.07,1.54,1.54,0,0,1,1-1,10.69,10.69,0,0,1,2.45-.41q5.37-.73,10.7-1.36t11.14-.93Zm-22.29-27.81a76.69,76.69,0,0,0,1-7.92c.17-2.49.31-4.76.41-6.83-.8-.59-1.66-1.2-2.57-1.84a29.62,29.62,0,0,0-3-1.81,17.81,17.81,0,0,0-3.35-1.36,13.16,13.16,0,0,0-3.69-.52,9.41,9.41,0,0,0-6.74,2.58,19.69,19.69,0,0,0-4.4,6.35,33.06,33.06,0,0,0-2.39,8,45.6,45.6,0,0,0-.7,7.45q0,11.66,3.09,17.07t8.61,5.42a12.15,12.15,0,0,0,5-1.25,27.93,27.93,0,0,0,5.59-3.47Z" transform="translate(-6808.74 -6932.61)"/><path d="M7235.59,7191.12q-1,7.74-2,15.45t-1.15,14.42a21.46,21.46,0,0,0,.44,4.79,7.89,7.89,0,0,0,1.31,3,4.89,4.89,0,0,0,2.05,1.58,7.11,7.11,0,0,0,2.68.48,21.73,21.73,0,0,0,5.22-.7,46.36,46.36,0,0,0,5.66-1.81c.6-.24,1.11-.43,1.53-.55a4.1,4.1,0,0,1,1.08-.19,1,1,0,0,1,1,.67,13.45,13.45,0,0,1,.52,2.32c.17,1.11.43,2.6.78,4.46s.92,4.23,1.72,7.08c0,.25.08.46.11.63a4.12,4.12,0,0,1,0,.48,1.55,1.55,0,0,1-.78,1.47,15.67,15.67,0,0,1-2.57,1q-3.06,1-6.45,2.1t-6.7,1.95c-2.22.59-4.34,1.07-6.38,1.44a30.42,30.42,0,0,1-5.36.55q-12.45,0-18.15-6.12t-5.7-18.65c0-1.43.05-2.89.15-4.39s.22-3.06.37-4.69q.74-7.36,1.3-14t1.16-12.65h-7.83a35.84,35.84,0,0,1-5.81-.33c-1.19-.22-1.79-.68-1.79-1.36a5.36,5.36,0,0,1,.75-1.59c.49-.86,1.13-1.89,1.9-3.1l2.49-3.87c.9-1.37,1.75-2.66,2.57-3.87l2.13-3.13c.6-.89,1-1.43,1.12-1.63h5.29c.44-3.73.81-6.87,1.08-9.4s.49-4.63.67-6.3.33-3,.48-3.88a10,10,0,0,1,.49-2,1.41,1.41,0,0,1,.67-.85,5.18,5.18,0,0,1,1.08-.33c2.24-.45,4.4-.85,6.48-1.22s4.18-.75,6.26-1.14,4.22-.85,6.38-1.37,4.41-1.12,6.74-1.81a1,1,0,0,0,.3,0,.68.68,0,0,1,.3,0c.59,0,.89.2.89.59v.15q-.37,4.05-1.15,11.28t-1.75,16.37h20a2,2,0,0,1,1.16.41,1.57,1.57,0,0,1,.55,1.36,13.87,13.87,0,0,1-.89,2.66q-.9,2.28-2.53,6l-2.69,6a5.46,5.46,0,0,1-1.08,1.63,4.08,4.08,0,0,1-2.27.66Z" transform="translate(-6808.74 -6932.61)"/><path d="M7273.52,7140.75a6.86,6.86,0,0,0,0-.81c0-.24,0-.49,0-.74a1.49,1.49,0,0,1,.52-1.14,6.93,6.93,0,0,1,2.53-1l20.95-4.94a12.48,12.48,0,0,0,2.16-.66,7.3,7.3,0,0,1,2.61-.52c1.74,0,2.61.79,2.61,2.36,0,.1-.08,1.11-.23,3s-.35,4.3-.6,7.15-.52,6-.81,9.33-.6,6.58-.9,9.62-.57,5.72-.82,8-.45,3.77-.59,4.46q3.49-1.92,7.3-3.62a79.52,79.52,0,0,1,7.64-2.95,59.62,59.62,0,0,1,7.68-1.95,40.93,40.93,0,0,1,7.41-.7,27.27,27.27,0,0,1,8.5,1.29,16.94,16.94,0,0,1,6.89,4.28,20.54,20.54,0,0,1,4.62,7.81,36.33,36.33,0,0,1,1.68,11.84c0,1.18,0,2.4-.08,3.65s-.14,2.54-.29,3.87l-3.21,30.16q-.37,3.1-.45,6.46t-.07,6.89a9.41,9.41,0,0,0,0,1c0,.27,0,.5,0,.7a1.15,1.15,0,0,1-.56,1,11.12,11.12,0,0,1-2.49,1l-18.26,5c-.55.15-1.27.38-2.16.7a7.77,7.77,0,0,1-2.61.48,3,3,0,0,1-1.94-.55,2.73,2.73,0,0,1-.67-2.17c.35-3.69.63-6.67.86-8.93s.39-4.07.52-5.42.23-2.38.33-3.1.18-1.35.23-1.91.12-1.21.22-1.92.21-1.76.34-3.13.29-3.2.52-5.46.51-5.24.86-8.93c.19-2,.41-3.91.63-5.86a47.68,47.68,0,0,0,.33-5.34,44.21,44.21,0,0,0-.33-5.65,14.64,14.64,0,0,0-1.19-4.35,7.18,7.18,0,0,0-2.35-2.84,6.6,6.6,0,0,0-3.8-1,20.46,20.46,0,0,0-4.66.74,23,23,0,0,0-5.89,2.43,19.18,19.18,0,0,0-5.22,4.46,11.88,11.88,0,0,0-2.57,6.83c-.39,3.78-.71,6.88-.93,9.29s-.41,4.4-.56,6-.26,2.83-.33,3.76-.14,1.8-.19,2.58c-.05.25-.12.85-.22,1.81s-.23,2.1-.38,3.43-.29,2.74-.44,4.24-.29,2.91-.41,4.24-.23,2.47-.3,3.43-.11,1.56-.11,1.81a9.33,9.33,0,0,0,0,1q0,.41,0,.78a1.18,1.18,0,0,1-.56,1,8.75,8.75,0,0,1-2.49.92l-19.46,6.71c-.54.2-1.26.45-2.16.74a8.12,8.12,0,0,1-2.61.44,2.84,2.84,0,0,1-1.86-.62,2.6,2.6,0,0,1-.74-2.1Z" transform="translate(-6808.74 -6932.61)"/><path d="M7408.42,7165.68a30.73,30.73,0,0,1,12.86,2.62,32.87,32.87,0,0,1,9.91,6.78,30.2,30.2,0,0,1,6.37,9.33,25.79,25.79,0,0,1,2.24,10.32,17.45,17.45,0,0,1-2.83,9.19,29.28,29.28,0,0,1-7.94,8.29,43.36,43.36,0,0,1-12.26,6,51.58,51.58,0,0,1-15.73,2.28,53.06,53.06,0,0,1-9.39-.88,11.29,11.29,0,0,0,1.87,5.45,13,13,0,0,0,3.95,3.77,18,18,0,0,0,5.4,2.17,27.27,27.27,0,0,0,6.22.7,36.89,36.89,0,0,0,6.9-.63,47.53,47.53,0,0,0,6.37-1.65q3.06-1,5.89-2.29c1.88-.84,3.67-1.67,5.36-2.51l1.16-.26a4.36,4.36,0,0,1,.93-.11c-.05,1.58-.07,3.08-.07,4.5s0,3.15,0,5.16-.06,4.26-.11,6.71a2.37,2.37,0,0,1,.29.74,3.33,3.33,0,0,1,.08.59c0,.59-.55,1.23-1.64,1.92a29.36,29.36,0,0,1-4.29,2.14,63.53,63.53,0,0,1-6,2.14q-3.39,1-6.9,1.88t-6.78,1.32a40.33,40.33,0,0,1-5.74.48,45.2,45.2,0,0,1-15.61-2.76,41.64,41.64,0,0,1-13.42-7.93,38,38,0,0,1-12.85-29.13,48.49,48.49,0,0,1,3.35-18.1,43.79,43.79,0,0,1,23.92-24.6A46.58,46.58,0,0,1,7408.42,7165.68Zm-.89,19.61a12.4,12.4,0,0,0-5.63,1.3,15.73,15.73,0,0,0-4.69,3.68,23.67,23.67,0,0,0-3.69,5.75,38.7,38.7,0,0,0-2.54,7.42,119.31,119.31,0,0,0,12.75-2.81,50.41,50.41,0,0,0,8.12-3,13.34,13.34,0,0,0,4.32-3,4.56,4.56,0,0,0,1.27-2.91,3.79,3.79,0,0,0-1-2.51,10,10,0,0,0-2.49-2.06,13.32,13.32,0,0,0-3.24-1.37A12.59,12.59,0,0,0,7407.53,7185.29Z" transform="translate(-6808.74 -6932.61)"/><path d="M7510.08,7188l-3.5-.33c-1.29-.12-2.66-.19-4.1-.19a41.22,41.22,0,0,0-6.67.56,19.23,19.23,0,0,0-6.3,2.17,15.56,15.56,0,0,0-5,4.46,15.75,15.75,0,0,0-2.69,7.34c-.34,3.64-.63,6.63-.85,9s-.39,4.25-.49,5.75-.18,2.71-.26,3.62-.14,1.76-.18,2.54q0,.3-.12,1.62c-.07.89-.18,1.92-.33,3.1s-.29,2.46-.41,3.84-.26,2.65-.41,3.83-.26,2.21-.34,3.1-.11,1.43-.11,1.62a9.53,9.53,0,0,0,0,1c0,.27,0,.53,0,.77a1.2,1.2,0,0,1-.56,1,9,9,0,0,1-2.5.92l-19.75,7c-.55.2-1.27.45-2.16.74a8.22,8.22,0,0,1-2.61.44,3.29,3.29,0,0,1-1.83-.51,2,2,0,0,1-.78-1.77l6.41-73.08a15.73,15.73,0,0,1,.56-3.36,2.08,2.08,0,0,1,1.68-1.22q6.78-1.32,14-2.69a122.58,122.58,0,0,0,14-3.5c.4,0,.63.06.71.18a1.18,1.18,0,0,1,.11.56,3,3,0,0,1,0,.44c0,.2-.1.64-.22,1.33s-.3,1.73-.52,3.13-.54,3.36-.93,5.86a52.67,52.67,0,0,1,7.56-4.86,71.38,71.38,0,0,1,8.31-3.8,65.75,65.75,0,0,1,8.05-2.51,30,30,0,0,1,6.78-.92Z" transform="translate(-6808.74 -6932.61)"/><path d="M7516.86,7227.62a.2.2,0,0,0,0-.11.12.12,0,0,1,0-.11c0-.63.35-.95,1-.95a1.64,1.64,0,0,1,1.19.51,25.39,25.39,0,0,0,6.82,4.57,19.61,19.61,0,0,0,8.31,1.77,17.28,17.28,0,0,0,2.76-.25,13.83,13.83,0,0,0,3-.85,6.64,6.64,0,0,0,2.35-1.59,3.46,3.46,0,0,0,.93-2.47,5.64,5.64,0,0,0-.82-3,6.93,6.93,0,0,0-2.16-2.25l-2.61-1.81-4-2.77-4-2.8c-1.27-.88-2.15-1.52-2.65-1.92a26.87,26.87,0,0,1-5.32-5.08,21,21,0,0,1-3-5.35,22.1,22.1,0,0,1-1.34-5.79c-.2-2-.3-4.15-.3-6.42a18.52,18.52,0,0,1,2.76-9.73,28.92,28.92,0,0,1,7.26-8,36.76,36.76,0,0,1,10.25-5.49,34.72,34.72,0,0,1,11.7-2,32.73,32.73,0,0,1,9.69,1.47,24.74,24.74,0,0,1,8.87,5c.25,3.1.42,6.14.52,9.14s.25,6.15.45,9.44a1.52,1.52,0,0,1-.45,1.29,1.72,1.72,0,0,1-1,.33,1.25,1.25,0,0,1-.9-.36q-1.71-1.62-3.5-3.21a27,27,0,0,0-3.76-2.8,21.12,21.12,0,0,0-4.21-2,14.72,14.72,0,0,0-4.77-.77,19.56,19.56,0,0,0-3.14.26,8.69,8.69,0,0,0-2.83,1,5.78,5.78,0,0,0-2.05,1.88,5.35,5.35,0,0,0-.78,3,11.52,11.52,0,0,0,.52,3.69,6.72,6.72,0,0,0,2.46,3l13.86,9.29a37.58,37.58,0,0,1,6.15,5.06,23.65,23.65,0,0,1,3.69,4.9,16.7,16.7,0,0,1,1.83,4.83,24.17,24.17,0,0,1,.48,4.76,22,22,0,0,1-3.09,11.69,27.32,27.32,0,0,1-8,8.4,37.31,37.31,0,0,1-11.14,5.09,46.17,46.17,0,0,1-12.49,1.73,42,42,0,0,1-9.2-1,31.87,31.87,0,0,1-8.24-3.06Z" transform="translate(-6808.74 -6932.61)"/><path d="M7252.8,7433.05a1.62,1.62,0,0,1-1.19-.81,2.92,2.92,0,0,1-.37-1.47,2.3,2.3,0,0,1,.3-1.18l9.16-17.33c.05-.2.14-1,.26-2.29s.26-3,.41-5,.31-4.21.49-6.67.36-4.89.56-7.3.38-4.71.56-6.9.33-4,.48-5.49c.05-.59.12-1.49.22-2.69s.2-2.6.3-4.17.23-3.27.37-5.09l.45-5.46,1-15.41-4.17.92c-1.44.32-2.84.61-4.21.85s-2.66.46-3.88.63a23.29,23.29,0,0,1-3.16.26,1.32,1.32,0,0,1-1.23-.74,3.08,3.08,0,0,1-.41-1.55,1.93,1.93,0,0,1,.44-1.4l18.94-17.48a26.87,26.87,0,0,1,4.58-3.35,20.16,20.16,0,0,1,5.48-2,47.15,47.15,0,0,1,7.86-1q4.65-.26,11.81-.26a85,85,0,0,1,21.69,2.51,49.36,49.36,0,0,1,16,7.16,69.63,69.63,0,0,1,8.64,6.93,37.07,37.07,0,0,1,6.41,8,36,36,0,0,1,3.95,9.66,48.56,48.56,0,0,1,1.34,11.91,61.59,61.59,0,0,1-3.8,22.42,55.5,55.5,0,0,1-10.36,17.14,62.34,62.34,0,0,1-15.31,12.43,93.85,93.85,0,0,1-18.71,8.26,118.88,118.88,0,0,1-20.57,4.57,158.22,158.22,0,0,1-20.83,1.4Zm43.3-88.79-.89,8.93q-.45,4.64-.93,9.92c-.32,3.51-.64,7.07-.93,10.69s-.6,7.18-.9,10.69-.57,6.8-.82,9.85-.47,5.77-.67,8.18-.37,4.33-.52,5.75l-.22,2.22a36.17,36.17,0,0,0,15.24-2.88,26.51,26.51,0,0,0,10.1-7.93,32.43,32.43,0,0,0,5.62-11.83,58.18,58.18,0,0,0,1.76-14.6,37.44,37.44,0,0,0-1.57-10.81,40.18,40.18,0,0,0-4.55-9.92,19.19,19.19,0,0,0-17.06-9.44,5.37,5.37,0,0,0-1.94.41A15.7,15.7,0,0,0,7296.1,7344.26Z" transform="translate(-6808.74 -6932.61)"/><path d="M7440.17,7414.4a2.18,2.18,0,0,0-.07.55v.48a6.9,6.9,0,0,0,.59,3.06,8.69,8.69,0,0,0,1.31,2,11.28,11.28,0,0,0,1.3,1.25c.4.32.6.61.6.85,0,.69-.75,1.33-2.24,1.92l-20.05,8.48c0,.05-.22.07-.52.07s-.79-.34-1.19-1a16.19,16.19,0,0,1-1.16-2.62c-.37-1-.72-2.18-1-3.39s-.61-2.32-.86-3.35a30.54,30.54,0,0,1-10.13,7.89,25.68,25.68,0,0,1-10.81,2.5,29.2,29.2,0,0,1-12.22-2.72,32.66,32.66,0,0,1-10.59-7.79,38.57,38.57,0,0,1-7.41-12.2,44,44,0,0,1-2.8-16.08A57.24,57.24,0,0,1,7366,7375a47.65,47.65,0,0,1,8.38-15,37.55,37.55,0,0,1,12.34-9.69,33.61,33.61,0,0,1,14.94-3.43,25.44,25.44,0,0,1,10.58,2.25,45,45,0,0,1,9.47,5.79,26.21,26.21,0,0,0,.52-3.54,7.5,7.5,0,0,1,.34-2.07,1.52,1.52,0,0,1,1-1,10.91,10.91,0,0,1,2.46-.41q5.37-.73,10.7-1.36t11.14-.93Zm-22.28-27.81a76.54,76.54,0,0,0,1-7.92c.18-2.49.31-4.76.41-6.83-.79-.59-1.65-1.2-2.57-1.84a29.44,29.44,0,0,0-3-1.81,18.38,18.38,0,0,0-3.35-1.36,13.16,13.16,0,0,0-3.69-.52,9.43,9.43,0,0,0-6.75,2.58,19.67,19.67,0,0,0-4.39,6.35,32.61,32.61,0,0,0-2.39,8,45.71,45.71,0,0,0-.71,7.45q0,11.66,3.1,17.07t8.6,5.42a12.35,12.35,0,0,0,5-1.25,28.22,28.22,0,0,0,5.59-3.47Z" transform="translate(-6808.74 -6932.61)"/><path d="M7488.24,7462.85a2.24,2.24,0,0,1-.33.48.92.92,0,0,1-.64.18,2.31,2.31,0,0,1-.67-.07q-2.68-1-5.06-1.63c-1.59-.44-3.17-.84-4.74-1.21s-3.16-.72-4.8-1-3.38-.68-5.22-1.07a2.71,2.71,0,0,1-1.16-.48,1.42,1.42,0,0,1-.41-1.15,5.75,5.75,0,0,1,.26-1.07c.18-.56.61-1.72,1.31-3.46s1.76-4.28,3.2-7.6,3.43-7.78,6-13.38c-.75-2.46-1.59-5.41-2.54-8.85s-1.95-7.2-3-11.29-2.17-8.39-3.31-12.94-2.3-9.14-3.47-13.79-2.33-9.24-3.5-13.79-2.3-8.89-3.39-13a6.54,6.54,0,0,1-.6-2c-.05-.52-.07-.95-.07-1.29,0-.69.39-1.13,1.19-1.33q5.81-1.24,12.07-2.62a81,81,0,0,0,11.85-3.5,2.31,2.31,0,0,1,.67-.07c.65,0,1,.24,1.05.74l9.09,49.55c.2-.59.58-1.66,1.15-3.21s1.25-3.4,2-5.56,1.62-4.55,2.57-7.16,1.91-5.26,2.91-8,2-5.4,2.94-8.08,1.87-5.17,2.72-7.48,1.58-4.35,2.2-6.12,1.1-3.1,1.45-4a1.1,1.1,0,0,1,1.12-.74.68.68,0,0,1,.3,0,1,1,0,0,0,.3,0,86.36,86.36,0,0,0,11.47,3.5q5.9,1.36,11.71,2.62a1.55,1.55,0,0,1,1.41,1.62,8.32,8.32,0,0,1-.89,3l-30.71,68.66Z" transform="translate(-6808.74 -6932.61)"/><path d="M7568.59,7404c-.15,2.11-.26,3.73-.34,4.86s-.14,2-.18,2.55-.08.92-.08,1.07a.92.92,0,0,1,0,.33,2.64,2.64,0,0,0-.07.44c0,.22-.06.69-.11,1.4s-.13,1.76-.23,3.14-.25,3.27-.44,5.68a13.3,13.3,0,0,1-.49,3.35,2.06,2.06,0,0,1-1.67,1.22l-13.27,2.62a111.34,111.34,0,0,0-13.42,3.5,2.27,2.27,0,0,1-.67.07l-.67-.59-.15-.14,1.64-20.21a13.68,13.68,0,0,1,.49-3.32,2,2,0,0,1,1.67-1.25q6.34-1.11,12.82-2.51t13.72-2.88a2.67,2.67,0,0,1,.67-.07C7568.31,7403.26,7568.59,7403.51,7568.59,7404Zm2.61-61.06q-2.4,11.51-4.66,23t-4.21,23.19a14,14,0,0,1-.49,3.39,1.89,1.89,0,0,1-1.67,1.18c-1.94.35-3.86.72-5.74,1.11s-3.88.86-6,1.4c-.39,0-.63-.06-.7-.18a1.06,1.06,0,0,1-.12-.56l-.74-72.86a12.43,12.43,0,0,1,.52-3.32,2.11,2.11,0,0,1,1.64-1.25q6.33-1.4,12.82-3.21t13.71-3.65a2.31,2.31,0,0,1,.67-.07c.55,0,.82.24.82.73,0,0-.1.66-.29,1.81s-.46,2.64-.79,4.46l-1.08,6.16c-.4,2.29-.82,4.57-1.26,6.86s-.89,4.47-1.31,6.56S7571.54,7341.51,7571.2,7342.94Z" transform="translate(-6808.74 -6932.61)"/></g><g id="Layer_3" data-name="Layer 3"><text transform="translate(0 130.13) scale(1.01 1)" style="font-size:151.03269958496094px;fill:#08601b;font-family:CarterOne, Carter One"><tspan style="letter-spacing:-0.01220719416667787em">H</tspan><tspan x="108.04" y="0">ap</tspan><tspan x="297.79" y="0" style="letter-spacing:-0.00927695573463465em">p</tspan><tspan x="394.1" y="0">y</tspan><tspan x="0" y="181.24" xml:space="preserve">      </tspan><tspan x="194.69" y="181.24" style="letter-spacing:-0.044433419018646655em">F</tspan><tspan x="276.77" y="181.24">athers</tspan><tspan x="0" y="362.48" xml:space="preserve">             D</tspan><tspan x="535.69" y="362.48" style="letter-spacing:-0.003909117209559843em">a</tspan><tspan x="627.14" y="362.48">y!</tspan></text></g><g id="Layer_3_copy" data-name="Layer 3 copy"><path d="M7324,7178.15a11.41,11.41,0,0,0-6.65-1.93,18,18,0,0,0-2.75.24,10.62,10.62,0,0,1,4.09,1.69,11.87,11.87,0,0,1,4,4.8,19.71,19.71,0,0,1,1.64,5.84,48.9,48.9,0,0,1,.37,6.3,53,53,0,0,1-.36,5.91c-.23,1.92-.43,3.85-.63,5.77-.35,3.69-.63,6.68-.86,8.94s-.39,4.05-.51,5.42-.26,2.59-.37,3.37c-.08.62-.15,1.17-.19,1.67s-.14,1.36-.25,2.17c-.07.44-.17,1.3-.31,2.86-.13,1.36-.3,3.18-.53,5.45-.14,1.49-.32,3.28-.52,5.38l.74-.22,4.72-1.29c.14-1.46.27-2.75.38-3.87.22-2.27.4-4.09.52-5.45.14-1.56.25-2.42.31-2.86.11-.81.2-1.53.25-2.17s.11-1.05.2-1.67c.11-.78.23-1.89.36-3.37s.3-3.18.52-5.42.51-5.25.86-8.94c.19-1.92.4-3.85.62-5.77a50.88,50.88,0,0,0,.37-5.91,48.81,48.81,0,0,0-.38-6.3A19.71,19.71,0,0,0,7328,7183,12,12,0,0,0,7324,7178.15Z" transform="translate(-6808.74 -6932.61)" style="fill:#fff"/><path d="M7125.87,7092.14l8.66-102.8c0-.16,0-.31,0-.44,3.94-.77,8-1.55,12.09-2.33l2.29-.48.2-1.26c-2.57.66-5.18,1.24-7.81,1.74q-6.18,1.17-12.08,2.33c0,.13,0,.28-.05.44l-8.77,104.2.85-.25Z" transform="translate(-6808.74 -6932.61)" style="fill:#fff"/><path d="M7255.34,7050.67l6.17-18.34c.19-.57.56-1.59,1.11-3.07s1.25-3.44,2-5.62,1.62-4.54,2.56-7.13,1.91-5.25,2.9-7.94,2-5.42,3-8.11,1.87-5.16,2.71-7.46c.69-1.89,1.3-3.58,1.84-5.11-1.61-.45-3.21-.93-4.79-1.46l-.14.39q-.94,2.67-2.22,6.18c-.84,2.3-1.75,4.79-2.71,7.46s-2,5.39-3,8.11-2,5.34-2.9,7.94-1.79,5-2.56,7.13-1.45,4-2,5.62-.92,2.5-1.11,3.07l-2.72,8.11Z" transform="translate(-6808.74 -6932.61)" style="fill:#fff"/><path d="M7228,7016.79l3.46,13.8c1.13,4.51,2.25,8.85,3.3,12.89s2.06,7.77,3,11.23,1.76,6.31,2.49,8.72l.55,1.8-.77,1.71c-2.53,5.58-4.52,10.06-5.94,13.32s-2.47,5.77-3.14,7.45l-.06.15,1.59.32c1.69.33,3.37.69,5,1.07s3.29.81,4.93,1.27q1.08.3,2.22.66l.59-1.33-2.42-.6c-1.62-.38-3.3-.74-5-1.07l-1.59-.32.06-.15c.67-1.68,1.73-4.19,3.15-7.45s3.41-7.74,5.93-13.32l.78-1.71-.55-1.8c-.73-2.41-1.57-5.35-2.5-8.72s-2-7.24-3-11.23-2.17-8.38-3.3-12.89l-3.47-13.8q-1.76-7-3.51-13.81-1.64-6.37-3.18-12.21l8.61-1.87c1.14-.25,2.25-.53,3.37-.82l-.27-1.44c-2.71.88-5.53,1.63-8.42,2.26l-8.6,1.87q1.53,5.83,3.18,12.21Z" transform="translate(-6808.74 -6932.61)" style="fill:#fff"/><path d="M7273.46,7137.74l-8.18,104.34,5.46-1.88,8-102.46,15.68-3.7c0-.44.07-.88.1-1.28-.38.1-.73.19-1.06.26Z" transform="translate(-6808.74 -6932.61)" style="fill:#fff"/><path d="M7307.87,7408.15a31.54,31.54,0,0,0,12-9.42,37.78,37.78,0,0,0,6.5-13.63,63.51,63.51,0,0,0,1.91-15.85,42.46,42.46,0,0,0-1.78-12.25,45.57,45.57,0,0,0-5.1-11.15,24.2,24.2,0,0,0-21.3-11.77,9.1,9.1,0,0,0-1.92.21,24.27,24.27,0,0,1,8.77,2.76,25.06,25.06,0,0,1,9.13,8.8,45.6,45.6,0,0,1,5.11,11.15,42.46,42.46,0,0,1,1.78,12.25,64,64,0,0,1-1.91,15.85,37.79,37.79,0,0,1-6.51,13.63,31.39,31.39,0,0,1-12,9.42,41.3,41.3,0,0,1-17.33,3.34h5.31A41.35,41.35,0,0,0,7307.87,7408.15Z" transform="translate(-6808.74 -6932.61)" style="fill:#fff"/><path d="M7159.35,7059.78a21.79,21.79,0,0,0,8.7,1.8c1,0,1.93-.06,2.87-.15a22.11,22.11,0,0,1-6.26-1.65,38.21,38.21,0,0,1-8.46-5.09l-8.1-6.41v4.2l2.78,2.21A38.27,38.27,0,0,0,7159.35,7059.78Z" transform="translate(-6808.74 -6932.61)" style="fill:#fff"/><path d="M7173.52,6995.13a17.44,17.44,0,0,0-2.69.23,13.18,13.18,0,0,1,5.21,2.07,16.28,16.28,0,0,1,5.1,5.69,26.12,26.12,0,0,1,2.66,7.44,43.32,43.32,0,0,1,.81,8.52,54.19,54.19,0,0,1-1.15,11,41.53,41.53,0,0,1-3.53,10.3,25.12,25.12,0,0,1-6.43,8.21,15.76,15.76,0,0,1-7.78,3.48,18.66,18.66,0,0,0,2.73.2,15.93,15.93,0,0,0,10.37-3.68,25.25,25.25,0,0,0,6.43-8.21,41.93,41.93,0,0,0,3.52-10.3,54.19,54.19,0,0,0,1.15-11,42.57,42.57,0,0,0-.81-8.52,25.82,25.82,0,0,0-2.65-7.44,16.3,16.3,0,0,0-5.11-5.69A13.66,13.66,0,0,0,7173.52,6995.13Z" transform="translate(-6808.74 -6932.61)" style="fill:#fff"/><path d="M7152,7000.2l9.52-6.39a56.42,56.42,0,0,1,12-6.17,36.82,36.82,0,0,1,9.72-2.09c-.79-.07-1.6-.11-2.44-.11a36.62,36.62,0,0,0-12.59,2.2,56.49,56.49,0,0,0-12.05,6.17l-3.57,2.4Z" transform="translate(-6808.74 -6932.61)" style="fill:#fff"/><path d="M7160.42,7167.61c-.1.89-.27,1.91-.51,3.1l-.88,4.36,4.58,3.63,1.62-8c.24-1.19.41-2.21.51-3.1,3.28-.45,6.55-.86,9.74-1.24l.06-.55c-1.68.14-3.32.3-4.93.49C7167.29,7166.7,7163.86,7167.14,7160.42,7167.61Z" transform="translate(-6808.74 -6932.61)" style="fill:#fff"/><path d="M7244.69,7231.24c-.09-.5-.18-1-.26-1.41-1.36.46-2.72.86-4.07,1.19a29.94,29.94,0,0,1-3.41.65,13.33,13.33,0,0,0,2.31.2A26.12,26.12,0,0,0,7244.69,7231.24Z" transform="translate(-6808.74 -6932.61)" style="fill:#fff"/><path d="M7207.74,7173.46h5.32l.53-4.4q.67-5.64,1.08-9.46c.28-2.54.5-4.65.68-6.32.13-1.24.25-2.25.36-3,1.61-.31,3.2-.61,4.74-.88q3.15-.55,6.32-1.15c.87-.16,1.76-.35,2.65-.54,0-.41.09-.84.13-1.24l-1.49.36c-2.25.54-4.47,1-6.61,1.42s-4.21.78-6.32,1.15c-1.53.27-3.12.57-4.74.88-.11.77-.23,1.78-.36,3-.17,1.67-.4,3.78-.67,6.32s-.64,5.7-1.09,9.46Z" transform="translate(-6808.74 -6932.61)" style="fill:#fff"/><path d="M7158.06,7225.88l3.4-23.74a79.33,79.33,0,0,0,1.06-8.36c.17-2.49.31-4.82.42-6.93l.13-2.67-2.15-1.59c-.83-.62-1.73-1.26-2.7-1.93a31.41,31.41,0,0,0-3.49-2.12,23.75,23.75,0,0,0-4.28-1.75,18.38,18.38,0,0,0-5.1-.72,16.35,16.35,0,0,0-2.55.21,18.39,18.39,0,0,1,2.34.51,24.05,24.05,0,0,1,4.28,1.75,32.36,32.36,0,0,1,3.49,2.12c1,.67,1.86,1.31,2.7,1.93l2.14,1.59-.13,2.67c-.1,2.11-.24,4.44-.41,6.93a82.06,82.06,0,0,1-1.06,8.36l-3.41,23.74-1.58,1.24a32.84,32.84,0,0,1-6.6,4.08,19.08,19.08,0,0,1-4.55,1.44,14.89,14.89,0,0,0,2.8.26,16.12,16.12,0,0,0,5.64-1.13l4.32-4.94.59,2.48a37.58,37.58,0,0,0,3.11-2.19Z" transform="translate(-6808.74 -6932.61)" style="fill:#fff"/><path d="M7294.71,7177.24l-.71,3.3,9.59-5.26c2.2-1.2,4.54-2.36,6.94-3.43a72.19,72.19,0,0,1,7.16-2.76,51.64,51.64,0,0,1,7-1.79,36.43,36.43,0,0,1,3.64-.49c-.8-.08-1.61-.13-2.44-.13a36.61,36.61,0,0,0-6.52.62,52.4,52.4,0,0,0-7,1.79,73,73,0,0,0-7.15,2.76c-2.41,1.07-4.74,2.23-6.94,3.43Z" transform="translate(-6808.74 -6932.61)" style="fill:#fff"/><path d="M7527.48,7241.94a27.18,27.18,0,0,1-4.48-1.41l-.34-7.06a23.3,23.3,0,0,1-3.91-1.39c-.51-.24-1-.49-1.51-.75l.44,9.2a27.49,27.49,0,0,0,4.48,1.41,37.12,37.12,0,0,0,8.11.87q1.36,0,2.73-.09A36.69,36.69,0,0,1,7527.48,7241.94Z" transform="translate(-6808.74 -6932.61)" style="fill:#fff"/><path d="M7551.21,7175.28a26.08,26.08,0,0,1,5.2,2.46c.55.34,1.09.7,1.63,1.08,0-.45,0-.9-.05-1.34s0-1.11-.07-1.67c-.46-.19-.92-.37-1.39-.53a19.5,19.5,0,0,0-6.41-1.05,22.92,22.92,0,0,0-2.74.18A18.21,18.21,0,0,1,7551.21,7175.28Z" transform="translate(-6808.74 -6932.61)" style="fill:#fff"/><path d="M7501.07,7178.56l0-.09-.83.05Z" transform="translate(-6808.74 -6932.61)" style="fill:#fff"/><path d="M7518.26,7197.41a16,16,0,0,0,2.31,4.08,22.35,22.35,0,0,0,4.35,4.12l.12.09c.27.22.91.7,2.39,1.73l4,2.8,6.55,4.54a11.94,11.94,0,0,1,3.64,3.81,10.65,10.65,0,0,1,1.53,5.56,8.47,8.47,0,0,1-2.28,5.89,11.51,11.51,0,0,1-4.07,2.78,18.44,18.44,0,0,1-4.09,1.17c-.42.07-.81.11-1.21.16a28.69,28.69,0,0,0,2.95.16,22.68,22.68,0,0,0,3.57-.32,18.13,18.13,0,0,0,4.09-1.17,11.64,11.64,0,0,0,4.08-2.78,8.47,8.47,0,0,0,2.28-5.89,10.75,10.75,0,0,0-1.53-5.56,12,12,0,0,0-3.65-3.81l-6.55-4.54-4-2.8c-1.49-1-2.12-1.51-2.4-1.73l-.12-.09a22.35,22.35,0,0,1-4.35-4.12,16.31,16.31,0,0,1-2.31-4.08,17.33,17.33,0,0,1-1-4.51,58.4,58.4,0,0,1-.28-5.93,13.55,13.55,0,0,1,2-7.15,24.31,24.31,0,0,1,6-6.66,32.3,32.3,0,0,1,8.87-4.74,31,31,0,0,1,7.29-1.61c-.85-.08-1.71-.13-2.57-.13a29.91,29.91,0,0,0-10,1.74,32.16,32.16,0,0,0-8.87,4.74,24,24,0,0,0-6,6.66,13.46,13.46,0,0,0-2,7.15c0,2.09.09,4.08.27,5.93A17.76,17.76,0,0,0,7518.26,7197.41Z" transform="translate(-6808.74 -6932.61)" style="fill:#fff"/><path d="M7497,7394.81c.19-.57.56-1.59,1.11-3.07s1.25-3.44,2-5.62,1.62-4.54,2.56-7.13,1.91-5.25,2.9-7.95,2-5.41,3-8.1,1.87-5.16,2.71-7.47c.69-1.88,1.3-3.57,1.84-5.1-1.61-.45-3.22-.93-4.8-1.46,0,.13-.09.26-.13.39q-.95,2.67-2.22,6.17c-.85,2.31-1.75,4.8-2.72,7.47s-2,5.39-2.95,8.1-2,5.35-2.9,7.95-1.79,5-2.56,7.13-1.46,4.05-2,5.62-.92,2.5-1.11,3.07l-2.73,8.11,1.88,10.22Z" transform="translate(-6808.74 -6932.61)" style="fill:#fff"/><path d="M7546.92,7318.49c0,.07,0,.15,0,.23l.69,67.34.82-.18c1.28-.26,2.58-.52,3.9-.77,0-.1,0-.57,0-.57l0-.25c.15-.92.31-1.83.47-2.75l-.64-62.82c0-.08,0-.16,0-.23,3.7-.85,7.51-1.81,11.31-2.87.72-.21,1.48-.41,2.22-.61.09-.52.18-1,.27-1.51-2.69.71-5.3,1.42-7.81,2.12C7554.43,7316.68,7550.62,7317.64,7546.92,7318.49Z" transform="translate(-6808.74 -6932.61)" style="fill:#fff"/><path d="M7417.23,7232a53,53,0,0,0,7-1.84c.45-.15.88-.32,1.32-.48,0-.74,0-1.46,0-2.12l-.34.15c-2,.89-4.13,1.72-6.31,2.45a53,53,0,0,1-7,1.84,42.61,42.61,0,0,1-5,.61c.82.06,1.64.1,2.47.1A42.6,42.6,0,0,0,7417.23,7232Z" transform="translate(-6808.74 -6932.61)" style="fill:#fff"/><path d="M7477.4,7184.86l10-7.72a49,49,0,0,1,6.86-4.42,68.86,68.86,0,0,1,7.73-3.53l1.08-.39.36-1.76a62.22,62.22,0,0,0-6.75,2.15,68.06,68.06,0,0,0-7.73,3.53,49,49,0,0,0-6.86,4.42l-3.92,3Z" transform="translate(-6808.74 -6932.61)" style="fill:#fff"/><path d="M7275.52,7324.29a15.78,15.78,0,0,1,4.13-1.5,43.86,43.86,0,0,1,7-.88c2.16-.12,4.78-.19,7.81-.23l-1.59,0c-4.65,0-8.54.09-11.53.25a43.86,43.86,0,0,0-7,.88,15.52,15.52,0,0,0-4.13,1.5,21.67,21.67,0,0,0-3.66,2.68l-12,11.11,1.08-.23,5.9-1.3,10.37-9.58A21.67,21.67,0,0,1,7275.52,7324.29Z" transform="translate(-6808.74 -6932.61)" style="fill:#fff"/><path d="M7422.1,7348.85c-.1.89-.27,1.91-.51,3.1l-.88,4.36,4.58,3.62,1.61-8c.24-1.19.41-2.21.52-3.1,3.26-.45,6.53-.86,9.73-1.24l.07-.55c-1.68.14-3.33.3-4.93.49C7428.94,7348,7425.51,7348.38,7422.1,7348.85Z" transform="translate(-6808.74 -6932.61)" style="fill:#fff"/><path d="M7396,7211.47c1,0,1.93,0,2.87-.08a51.39,51.39,0,0,1-6.06-.72l-6.47-1.17.09,1,1.07.2A48.68,48.68,0,0,0,7396,7211.47Z" transform="translate(-6808.74 -6932.61)" style="fill:#fff"/><path d="M7392.15,7204.36a124.82,124.82,0,0,0,13.29-2.92,55.51,55.51,0,0,0,8.94-3.31,18,18,0,0,0,5.94-4.29,9.45,9.45,0,0,0,2.44-6.13,8.82,8.82,0,0,0-2.21-5.75,14.87,14.87,0,0,0-3.74-3.12,18.17,18.17,0,0,0-4.48-1.89,17.36,17.36,0,0,0-4.49-.66,17.62,17.62,0,0,0-2.83.23,17.69,17.69,0,0,1,2,.43,18.1,18.1,0,0,1,4.47,1.89,15.1,15.1,0,0,1,3.75,3.12,8.81,8.81,0,0,1,2.2,5.75,9.45,9.45,0,0,1-2.44,6.13,18,18,0,0,1-5.93,4.29,55.67,55.67,0,0,1-8.95,3.31,124.82,124.82,0,0,1-13.29,2.92l-1.93.34-.23,1Z" transform="translate(-6808.74 -6932.61)" style="fill:#fff"/><path d="M7419.74,7407.12l3.4-23.73a82.24,82.24,0,0,0,1.06-8.37c.17-2.46.31-4.79.41-6.93l.13-2.67-2.15-1.59c-.83-.62-1.72-1.26-2.69-1.93a32.36,32.36,0,0,0-3.49-2.12,23,23,0,0,0-4.28-1.75,18.13,18.13,0,0,0-5.11-.72,16.22,16.22,0,0,0-2.54.21,18.77,18.77,0,0,1,2.34.51,23,23,0,0,1,4.27,1.75,32.52,32.52,0,0,1,3.5,2.12c1,.67,1.86,1.31,2.69,1.93l2.15,1.59-.13,2.67c-.11,2.14-.25,4.47-.42,6.93a82.09,82.09,0,0,1-1.05,8.37l-3.41,23.73-1.59,1.24a33,33,0,0,1-6.59,4.08,19.23,19.23,0,0,1-4.55,1.44,14.81,14.81,0,0,0,2.8.26,16.12,16.12,0,0,0,5.64-1.13l4.31-4.94.6,2.48a37.58,37.58,0,0,0,3.11-2.19Z" transform="translate(-6808.74 -6932.61)" style="fill:#fff"/><path d="M7373.75,7233.37a36.87,36.87,0,0,0,11.83,7,40.14,40.14,0,0,0,13.89,2.46c.72,0,1.51,0,2.38-.11a40.12,40.12,0,0,1-11-2.35,37.09,37.09,0,0,1-11.83-7A33,33,0,0,1,7367.9,7208a43.92,43.92,0,0,1,3-16.26,39.78,39.78,0,0,1,8.37-13.08,39.37,39.37,0,0,1,12.88-8.76,40.52,40.52,0,0,1,13.65-3.11c-.78-.06-1.57-.1-2.38-.1a41.79,41.79,0,0,0-16.58,3.21,39.37,39.37,0,0,0-12.88,8.76,39.78,39.78,0,0,0-8.37,13.08,43.92,43.92,0,0,0-3,16.26,33,33,0,0,0,11.16,25.38Z" transform="translate(-6808.74 -6932.61)" style="fill:#fff"/><path d="M7077.43,7185.26l-8.75.3-9.74.29v.16l15.06-.45,8.75-.3,1.38-.05.08-.2Z" transform="translate(-6808.74 -6932.61)" style="fill:#fff"/><path d="M7204.22,7176l1.75-2.57h-5.32c-.51.76-1.09,1.62-1.74,2.57q-1.2,1.77-2.51,3.79l-1.64,2.52h5.32c.51-.8,1.06-1.65,1.63-2.52Q7203,7177.8,7204.22,7176Z" transform="translate(-6808.74 -6932.61)" style="fill:#fff"/><path d="M7124.4,7240.54a27.73,27.73,0,0,1-9-6.61,33.9,33.9,0,0,1-6.45-10.65,39.25,39.25,0,0,1-2.45-14.26,52.48,52.48,0,0,1,2.81-17.57,43,43,0,0,1,7.49-13.42,32.86,32.86,0,0,1,10.7-8.43,29,29,0,0,1,9.93-2.78,22.66,22.66,0,0,0-2.49-.14,28.88,28.88,0,0,0-12.75,2.92,32.76,32.76,0,0,0-10.7,8.43,42.79,42.79,0,0,0-7.5,13.42,52.48,52.48,0,0,0-2.8,17.57,39,39,0,0,0,2.45,14.26,33.9,33.9,0,0,0,6.45,10.65,27.8,27.8,0,0,0,9,6.61,24.24,24.24,0,0,0,10.14,2.27,17.59,17.59,0,0,0,2.49-.18A24.8,24.8,0,0,1,7124.4,7240.54Z" transform="translate(-6808.74 -6932.61)" style="fill:#fff"/><path d="M7161.17,7239.48c-.31-1.16-.59-2.24-.83-3.23l-2.26-9.42-4.17,4.78,1.12,4.64c.24,1,.51,2.07.82,3.23.21.75.42,1.48.65,2.17l4.72-2Z" transform="translate(-6808.74 -6932.61)" style="fill:#fff"/><path d="M7028.21,7200.66c.41-.62.85-1.27,1.29-2q2-3,3.84-5.95c1.22-1.93,2.3-3.64,3.22-5.12,1.22-1.95,1.52-2.38,1.56-2.45l.83-1.15.11-1.43,1.79-25.63h-5.31l-1.79,25.63-.11,1.43-.83,1.15c-.05.07-.35.5-1.56,2.45-.93,1.48-2,3.19-3.23,5.12s-2.51,3.92-3.83,5.95c-.45.69-.88,1.34-1.3,2,1.11,0,2.45.05,4.08.05h5.31C7030.66,7200.71,7029.31,7200.69,7028.21,7200.66Z" transform="translate(-6808.74 -6932.61)" style="fill:#fff"/><path d="M7034.55,7238.48c.18-3,.39-6,.63-9s.52-6,.81-9,.55-5.75.76-8.25l1-11.59h-5.31l-1,11.59c-.2,2.5-.46,5.28-.75,8.25s-.57,5.95-.81,9-.46,6-.63,9c-.11,2-.18,3.79-.19,5.5.29-.06.66-.15,1.12-.28,1.27-.36,2.69-.8,4.23-1.32C7034.43,7241.13,7034.47,7239.84,7034.55,7238.48Z" transform="translate(-6808.74 -6932.61)" style="fill:#fff"/><path d="M7459.93,7172.88c0-.16,0-.32,0-.46l12.15-2.33c.8-.15,1.59-.32,2.38-.48l.2-1.26c-2.59.66-5.23,1.24-7.89,1.74l-12.15,2.33c0,.14,0,.3-.05.46l-6.07,69.18,5.49-2Z" transform="translate(-6808.74 -6932.61)" style="fill:#fff"/><path d="M7265.87,7409.47a21.06,21.06,0,0,0,.39-3c.12-1.36.26-3,.41-5.07s.31-4.23.49-6.7.36-4.85.56-7.24.38-4.72.55-6.91.33-3.94.48-5.39l.23-2.78c.1-1.24.2-2.65.31-4.26s.22-3.21.36-5l.45-5.46,1.5-22.13-5.4,1.18-1.41,20.95-.45,5.46c-.15,1.79-.27,3.45-.37,5s-.2,3-.3,4.26l-.24,2.78c-.14,1.45-.3,3.24-.47,5.39s-.36,4.49-.56,6.91-.38,4.8-.56,7.24-.33,4.7-.48,6.7-.29,3.71-.42,5.07a19.46,19.46,0,0,1-.39,3l-.14.59-7.41,14h5.32l7.4-14Z" transform="translate(-6808.74 -6932.61)" style="fill:#fff"/><path d="M7543.7,7409.69l0-.4c3.65-.66,7.35-1.4,11-2.19l3.38-.73c0-.32.05-.69.08-1.13-3,.63-5.95,1.25-8.77,1.86-3.68.79-7.38,1.53-11,2.19,0,.13,0,.26,0,.4l-1.14,14.05q2.67-.73,5.42-1.33Z" transform="translate(-6808.74 -6932.61)" style="fill:#fff"/><path d="M7035.77,6989.34c0-.16,0-.31,0-.44q5.9-1.15,12.08-2.33c.77-.15,1.53-.32,2.3-.48l.2-1.26c-2.58.66-5.19,1.24-7.81,1.74q-6.18,1.17-12.09,2.33c0,.13,0,.28,0,.44l-8.77,104.2.85-.25,4.58-1.15Z" transform="translate(-6808.74 -6932.61)" style="fill:#fff"/><path d="M7478.26,7451.73c-1.63-.38-3.31-.74-5-1.07l-1.59-.32.06-.15c.67-1.69,1.73-4.2,3.14-7.46s3.41-7.73,5.94-13.31l.77-1.72-.54-1.79c-.74-2.41-1.58-5.35-2.5-8.72s-2-7.23-3-11.23-2.17-8.38-3.31-12.89l-3.46-13.8q-1.77-7-3.51-13.81-1.65-6.37-3.18-12.21l8.6-1.87c1.14-.25,2.26-.53,3.37-.82l-.26-1.44c-2.71.87-5.53,1.63-8.42,2.26l-8.61,1.87q1.55,5.84,3.18,12.21,1.76,6.82,3.51,13.81l3.47,13.8c1.13,4.51,2.24,8.85,3.3,12.89s2.06,7.78,3,11.23,1.77,6.31,2.5,8.72l.55,1.79-.78,1.72c-2.52,5.58-4.52,10.06-5.93,13.31s-2.47,5.77-3.15,7.46l-.06.15,1.59.32c1.68.33,3.36.69,5,1.07s3.29.81,4.93,1.27c.71.2,1.45.42,2.21.66l.6-1.33Q7479.48,7452,7478.26,7451.73Z" transform="translate(-6808.74 -6932.61)" style="fill:#fff"/><path d="M7422.85,7420.72c-.32-1.17-.59-2.24-.83-3.23l-2.26-9.42-4.17,4.78,1.12,4.64c.23,1,.51,2.06.82,3.23.2.75.42,1.48.64,2.17l4.73-2A1.09,1.09,0,0,1,7422.85,7420.72Z" transform="translate(-6808.74 -6932.61)" style="fill:#fff"/><path d="M7386.07,7421.78a27.8,27.8,0,0,1-9-6.61,33.9,33.9,0,0,1-6.45-10.65,39,39,0,0,1-2.45-14.26,52.48,52.48,0,0,1,2.8-17.57,42.79,42.79,0,0,1,7.5-13.42,32.86,32.86,0,0,1,10.7-8.43,28.72,28.72,0,0,1,9.92-2.78,22.34,22.34,0,0,0-2.48-.14,28.93,28.93,0,0,0-12.76,2.92,32.86,32.86,0,0,0-10.7,8.43,43,43,0,0,0-7.49,13.42,52.48,52.48,0,0,0-2.81,17.57,39,39,0,0,0,2.46,14.26,33.88,33.88,0,0,0,6.44,10.65,27.94,27.94,0,0,0,9,6.61,24.24,24.24,0,0,0,10.14,2.27,17.35,17.35,0,0,0,2.48-.18A24.8,24.8,0,0,1,7386.07,7421.78Z" transform="translate(-6808.74 -6932.61)" style="fill:#fff"/><path d="M7214.18,7238.29c-2.89-3.11-4.36-8.24-4.36-15.25,0-1.33.05-2.69.14-4.06s.22-3,.36-4.56c.5-4.9.94-9.63,1.31-14s.76-8.68,1.15-12.58l.54-5.49H7208l-.55,5.49c-.38,3.9-.77,8.13-1.14,12.58s-.82,9.11-1.31,14c-.15,1.58-.27,3.1-.37,4.56s-.13,2.73-.13,4.06c0,7,1.46,12.14,4.36,15.25s7.67,4.52,14.49,4.52a19.3,19.3,0,0,0,2.17-.13C7220.35,7242.27,7216.53,7240.8,7214.18,7238.29Z" transform="translate(-6808.74 -6932.61)" style="fill:#fff"/><path d="M6993.09,6997.46l1.61-8c.24-1.18.41-2.21.51-3.1,3.28-.45,6.55-.86,9.74-1.24l.06-.55c-1.68.14-3.32.31-4.92.49-3.33.39-6.76.83-10.19,1.3-.11.89-.27,1.92-.51,3.1l-.88,4.36Z" transform="translate(-6808.74 -6932.61)" style="fill:#fff"/><path d="M7053.27,7000.2l9.53-6.39a56.42,56.42,0,0,1,12-6.17,36.75,36.75,0,0,1,9.71-2.09c-.78-.07-1.59-.11-2.43-.11a36.58,36.58,0,0,0-12.59,2.2,56.26,56.26,0,0,0-12.05,6.17l-3.57,2.4Z" transform="translate(-6808.74 -6932.61)" style="fill:#fff"/><path d="M6987.53,7044.65l3.41-23.75a81.92,81.92,0,0,0,1.05-8.36c.18-2.5.32-4.83.42-6.93l.13-2.67-2.14-1.59c-.84-.62-1.74-1.26-2.7-1.93a32.52,32.52,0,0,0-3.5-2.12,22.91,22.91,0,0,0-4.27-1.74,18.09,18.09,0,0,0-5.11-.73,16.45,16.45,0,0,0-2.55.21,16.52,16.52,0,0,1,2.34.52,22.73,22.73,0,0,1,4.28,1.74,33.53,33.53,0,0,1,3.5,2.12c1,.67,1.86,1.31,2.69,1.93l2.14,1.59-.12,2.67c-.11,2.1-.25,4.43-.42,6.93a82.06,82.06,0,0,1-1.06,8.36l-3.4,23.75-1.59,1.23A32.61,32.61,0,0,1,6974,7050a19.23,19.23,0,0,1-4.55,1.44,14.74,14.74,0,0,0,2.8.26,16.12,16.12,0,0,0,5.64-1.13l4.31-4.94.6,2.48c1-.65,2.07-1.38,3.11-2.19Z" transform="translate(-6808.74 -6932.61)" style="fill:#fff"/><path d="M7060.59,7059.77a21.72,21.72,0,0,0,8.71,1.81c1,0,1.92-.06,2.85-.15a21.59,21.59,0,0,1-6.24-1.66,37.57,37.57,0,0,1-8.46-5.08l-8.11-6.41v4.2l2.79,2.21A38,38,0,0,0,7060.59,7059.77Z" transform="translate(-6808.74 -6932.61)" style="fill:#fff"/><path d="M7097.71,7140.6c-2.64.13-5.8.26-9.46.41l-12,.48q-6.49.26-13.06.48l-31.19,1.09-3.08,5.18c-.82,1.37-1.77,2.88-2.83,4.5s-1.93,3-2.77,4.31l-.08.14c.24,0,.47,0,.7,0l1.63-.07,1.94-.08,1.17,0q1.24-2,2.72-4.25c1.06-1.62,2-3.13,2.83-4.5l3.09-5.18,31.18-1.09q6.57-.23,13.07-.48l12-.48,5-.21.1-.24Z" transform="translate(-6808.74 -6932.61)" style="fill:#fff"/><path d="M7074.77,6995.13a17.34,17.34,0,0,0-2.69.23,13.18,13.18,0,0,1,5.21,2.07,16.28,16.28,0,0,1,5.1,5.69,25.82,25.82,0,0,1,2.65,7.44,42.57,42.57,0,0,1,.81,8.52,54.24,54.24,0,0,1-1.14,11,41.79,41.79,0,0,1-3.53,10.3,25.25,25.25,0,0,1-6.43,8.21,15.75,15.75,0,0,1-7.79,3.48,18.9,18.9,0,0,0,2.74.2,15.9,15.9,0,0,0,10.36-3.68,25,25,0,0,0,6.43-8.21,41.39,41.39,0,0,0,3.53-10.3,54.26,54.26,0,0,0,1.15-11,42.57,42.57,0,0,0-.81-8.52,26.12,26.12,0,0,0-2.65-7.44,16.4,16.4,0,0,0-5.11-5.69A13.66,13.66,0,0,0,7074.77,6995.13Z" transform="translate(-6808.74 -6932.61)" style="fill:#fff"/><path d="M6827.66,7019.79l1.16-1.7c1.33-2,2.63-3.93,3.86-5.85s2.31-3.59,3.28-5.08,1.56-2.4,1.85-2.83l.7-1.06,1.86-19.27v-.13c0-.27.06-.92.14-2,.1-1.37.22-3,.37-4.88s.31-3.82.48-5.82.33-3.67.48-5.07c0,0,.05-.84.07-1.09l15.56-3.76c0-.43.07-.87.11-1.31l-21,5.07c0,.25-.08,1.09-.08,1.09-.14,1.4-.3,3.09-.47,5.07s-.34,3.94-.48,5.82-.28,3.51-.37,4.88c-.08,1-.13,1.69-.14,2v.13l-1.86,19.27-.71,1.06c-.29.43-.9,1.37-1.85,2.83l-3.27,5.08c-1.23,1.92-2.54,3.89-3.87,5.85-.4.59-.78,1.16-1.16,1.7,1.08,0,2.37,0,3.92,0h5.31C6830,7019.83,6828.73,7019.82,6827.66,7019.79Z" transform="translate(-6808.74 -6932.61)" style="fill:#fff"/><path d="M6857.77,7005.71l37.43-.41.31-4.61c.44-6.44.94-12,1.47-16.41.57-4.73.92-8.38,1.07-11.16q.22-3.78.3-5.43c.06-1.22.08-1.91.08-2.07s0-.34,0-.49l16.26-3.88.1-1.29-21.68,5.17v.49c0,.16,0,.85-.08,2.07s-.15,2.91-.3,5.43c-.16,2.78-.51,6.43-1.07,11.16-.54,4.45-1,10-1.47,16.41l-.31,4.61-32.11.35Z" transform="translate(-6808.74 -6932.61)" style="fill:#fff"/><path d="M6891.55,7047.48c.68-6.17,1.31-12.4,1.86-18.54a15.61,15.61,0,0,0,.14-2.69,5.12,5.12,0,0,1,.06-1l.83-5.72h-5.31l-.83,5.72a5.21,5.21,0,0,0-.07,1,14.67,14.67,0,0,1-.14,2.69c-.54,6.14-1.17,12.37-1.86,18.54-.55,5-.88,9.86-1,14.67,1.1-.32,2.31-.71,3.61-1.13l1.76-.59C6890.75,7056.17,6891.06,7051.84,6891.55,7047.48Z" transform="translate(-6808.74 -6932.61)" style="fill:#fff"/><path d="M6953.87,7059.3a27.8,27.8,0,0,1-9-6.61,33.9,33.9,0,0,1-6.45-10.65,39,39,0,0,1-2.45-14.26,52.48,52.48,0,0,1,2.8-17.57,43.09,43.09,0,0,1,7.49-13.42,32.79,32.79,0,0,1,10.71-8.43,28.88,28.88,0,0,1,9.92-2.78,22.48,22.48,0,0,0-2.48-.14,28.93,28.93,0,0,0-12.76,2.92,32.86,32.86,0,0,0-10.7,8.43,43.09,43.09,0,0,0-7.49,13.42,52.23,52.23,0,0,0-2.81,17.57,39.25,39.25,0,0,0,2.45,14.26,33.9,33.9,0,0,0,6.45,10.65,27.73,27.73,0,0,0,9,6.61,24.25,24.25,0,0,0,10.14,2.28,18.93,18.93,0,0,0,2.48-.18A25.12,25.12,0,0,1,6953.87,7059.3Z" transform="translate(-6808.74 -6932.61)" style="fill:#fff"/><path d="M6990.64,7058.24c-.31-1.16-.58-2.24-.82-3.23l-2.26-9.42-4.17,4.78,1.11,4.64c.24,1,.52,2.07.83,3.23.2.75.42,1.48.64,2.17l4.73-2Z" transform="translate(-6808.74 -6932.61)" style="fill:#fff"/><path d="M6833.84,7057.31c.18-3,.39-6.16.63-9.42s.54-6.65.89-10.1.69-6.92,1-10.31l.53-7.65h-5.31l-.54,7.65q-.51,5.09-1,10.31c-.34,3.45-.64,6.84-.88,10.1s-.46,6.43-.63,9.42c-.1,1.73-.17,3.36-.21,4.88.16,0,.6-.23.6-.23l4.78-1.74C6833.74,7059.28,6833.79,7058.32,6833.84,7057.31Z" transform="translate(-6808.74 -6932.61)" style="fill:#fff"/></g></svg>